<?xml version='1.0' encoding='UTF-8' standalone='no'?>
<svg viewBox="0 0 419 289" height="289pt" xmlns:xlink="http://www.w3.org/1999/xlink" width="419pt" xmlns="http://www.w3.org/2000/svg">
 <title>Figure 1</title>
 <desc>
Creator: GL2PS 1.4.2, (C) 1999-2020 C. Geuzaine
For: Octave
CreationDate: Sat Mar  9 12:15:53 2024
</desc>
 <defs/>
 <polygon fill="#ffffff" points="0,0 419,0 419,289 0,289"/>
 <g>
  <polygon fill="#ffffff" points="0,289 419,289 419,0 0,0" shape-rendering="crispEdges"/>
  <clipPath id="cp00419289">
   <polygon points="0,289 419,289 419,0 0,0"/>
  </clipPath>
  <g clip-path="url(#cp00419289)">
   <polygon fill="#ffffff" points="54.5283,257.316 379.601,257.316 379.601,21.684 54.5283,21.684" shape-rendering="crispEdges"/>
   <polygon fill="#20928c" points="71.1459,257.316 71.1459,255.97 68.1834,255.97 68.1834,257.316" shape-rendering="crispEdges"/>
   <polygon fill="#20928c" points="82.9957,257.316 85.9582,257.316 85.9582,256.643 82.9957,256.643 80.0333,256.643 80.0333,257.316" shape-rendering="crispEdges"/>
   <polygon fill="#20928c" points="88.9207,257.316 88.9207,255.97 85.9582,255.97 85.9582,257.316" shape-rendering="crispEdges"/>
   <polygon fill="#20928c" points="91.8831,257.316 91.8831,254.623 88.9207,254.623 88.9207,257.316" shape-rendering="crispEdges"/>
   <polygon fill="#20928c" points="94.8456,257.316 94.8456,253.95 91.8831,253.95 91.8831,257.316" shape-rendering="crispEdges"/>
   <polygon fill="#20928c" points="97.8081,257.316 97.8081,255.97 94.8456,255.97 94.8456,257.316" shape-rendering="crispEdges"/>
   <polygon fill="#20928c" points="100.771,257.316 100.771,253.277 97.8081,253.277 97.8081,257.316" shape-rendering="crispEdges"/>
   <polygon fill="#20928c" points="103.733,257.316 103.733,251.257 100.771,251.257 100.771,257.316" shape-rendering="crispEdges"/>
   <polygon fill="#20928c" points="106.695,257.316 106.695,251.931 103.733,251.931 103.733,257.316" shape-rendering="crispEdges"/>
   <polygon fill="#20928c" points="109.658,257.316 112.62,257.316 112.62,249.238 109.658,249.238 106.695,249.238 106.695,257.316" shape-rendering="crispEdges"/>
   <polygon fill="#20928c" points="115.583,257.316 115.583,248.564 112.62,248.564 112.62,257.316" shape-rendering="crispEdges"/>
   <polygon fill="#20928c" points="118.545,257.316 118.545,249.238 115.583,249.238 115.583,257.316" shape-rendering="crispEdges"/>
   <polygon fill="#20928c" points="121.508,257.316 121.508,247.218 118.545,247.218 118.545,257.316" shape-rendering="crispEdges"/>
   <polygon fill="#20928c" points="124.47,257.316 124.47,242.505 121.508,242.505 121.508,257.316" shape-rendering="crispEdges"/>
   <polygon fill="#20928c" points="127.433,257.316 127.433,246.545 124.47,246.545 124.47,257.316" shape-rendering="crispEdges"/>
   <polygon fill="#20928c" points="130.395,257.316 130.395,231.06 127.433,231.06 127.433,257.316" shape-rendering="crispEdges"/>
   <polygon fill="#20928c" points="133.358,257.316 133.358,238.466 130.395,238.466 130.395,257.316" shape-rendering="crispEdges"/>
   <polygon fill="#20928c" points="136.32,257.316 136.32,234.426 133.358,234.426 133.358,257.316" shape-rendering="crispEdges"/>
   <polygon fill="#20928c" points="139.283,257.316 139.283,227.021 136.32,227.021 136.32,257.316" shape-rendering="crispEdges"/>
   <polygon fill="#20928c" points="142.245,257.316 142.245,221.635 139.283,221.635 139.283,257.316" shape-rendering="crispEdges"/>
   <polygon fill="#20928c" points="145.208,257.316 145.208,213.556 142.245,213.556 142.245,257.316" shape-rendering="crispEdges"/>
   <polygon fill="#20928c" points="148.17,257.316 148.17,214.229 145.208,214.229 145.208,257.316" shape-rendering="crispEdges"/>
   <polygon fill="#20928c" points="151.132,257.316 151.132,211.536 148.17,211.536 148.17,257.316" shape-rendering="crispEdges"/>
   <polygon fill="#20928c" points="154.095,257.316 154.095,192.013 151.132,192.013 151.132,257.316" shape-rendering="crispEdges"/>
   <polygon fill="#20928c" points="157.057,257.316 157.057,208.17 154.095,208.17 154.095,257.316" shape-rendering="crispEdges"/>
   <polygon fill="#20928c" points="160.02,257.316 160.02,192.686 157.057,192.686 157.057,257.316" shape-rendering="crispEdges"/>
   <polygon fill="#20928c" points="162.982,257.316 162.982,177.875 160.02,177.875 160.02,257.316" shape-rendering="crispEdges"/>
   <polygon fill="#20928c" points="165.945,257.316 165.945,169.123 162.982,169.123 162.982,257.316" shape-rendering="crispEdges"/>
   <polygon fill="#20928c" points="168.907,257.316 168.907,164.41 165.945,164.41 165.945,257.316" shape-rendering="crispEdges"/>
   <polygon fill="#20928c" points="171.87,257.316 171.87,152.965 168.907,152.965 168.907,257.316" shape-rendering="crispEdges"/>
   <polygon fill="#20928c" points="174.832,257.316 174.832,146.906 171.87,146.906 171.87,257.316" shape-rendering="crispEdges"/>
   <polygon fill="#20928c" points="177.795,257.316 177.795,128.055 174.832,128.055 174.832,257.316" shape-rendering="crispEdges"/>
   <polygon fill="#20928c" points="180.757,257.316 180.757,129.402 177.795,129.402 177.795,257.316" shape-rendering="crispEdges"/>
   <polygon fill="#20928c" points="183.72,257.316 183.72,112.571 180.757,112.571 180.757,257.316" shape-rendering="crispEdges"/>
   <polygon fill="#20928c" points="186.682,257.316 186.682,110.551 183.72,110.551 183.72,257.316" shape-rendering="crispEdges"/>
   <polygon fill="#20928c" points="189.645,257.316 189.645,90.354 186.682,90.354 186.682,257.316" shape-rendering="crispEdges"/>
   <polygon fill="#20928c" points="192.607,257.316 192.607,105.838 189.645,105.838 189.645,257.316" shape-rendering="crispEdges"/>
   <polygon fill="#20928c" points="195.569,257.316 195.569,80.9287 192.607,80.9287 192.607,257.316" shape-rendering="crispEdges"/>
   <polygon fill="#20928c" points="198.532,257.316 198.532,104.492 195.569,104.492 195.569,257.316" shape-rendering="crispEdges"/>
   <polygon fill="#20928c" points="201.494,257.316 201.494,91.7005 198.532,91.7005 198.532,257.316" shape-rendering="crispEdges"/>
   <polygon fill="#20928c" points="204.457,257.316 204.457,80.2555 201.494,80.2555 201.494,257.316" shape-rendering="crispEdges"/>
   <polygon fill="#20928c" points="207.419,257.316 207.419,74.8696 204.457,74.8696 204.457,257.316" shape-rendering="crispEdges"/>
   <polygon fill="#20928c" points="210.382,257.316 210.382,71.5034 207.419,71.5034 207.419,257.316" shape-rendering="crispEdges"/>
   <polygon fill="#20928c" points="213.344,257.316 213.344,53.3261 210.382,53.3261 210.382,257.316" shape-rendering="crispEdges"/>
   <polygon fill="#20928c" points="216.307,257.316 216.307,68.1372 213.344,68.1372 213.344,257.316" shape-rendering="crispEdges"/>
   <polygon fill="#20928c" points="219.269,257.316 222.232,257.316 222.232,57.3655 219.269,57.3655 216.307,57.3655 216.307,257.316" shape-rendering="crispEdges"/>
   <polygon fill="#20928c" points="225.194,257.316 225.194,55.3458 222.232,55.3458 222.232,257.316" shape-rendering="crispEdges"/>
   <polygon fill="#20928c" points="228.157,257.316 228.157,53.3261 225.194,53.3261 225.194,257.316" shape-rendering="crispEdges"/>
   <polygon fill="#20928c" points="231.119,257.316 231.119,64.7711 228.157,64.7711 228.157,257.316" shape-rendering="crispEdges"/>
   <polygon fill="#20928c" points="234.082,257.316 234.082,80.2555 231.119,80.2555 231.119,257.316" shape-rendering="crispEdges"/>
   <polygon fill="#20928c" points="237.044,257.316 237.044,79.5822 234.082,79.5822 234.082,257.316" shape-rendering="crispEdges"/>
   <polygon fill="#20928c" points="240.006,257.316 240.006,64.0978 237.044,64.0978 237.044,257.316" shape-rendering="crispEdges"/>
   <polygon fill="#20928c" points="242.969,257.316 242.969,96.4131 240.006,96.4131 240.006,257.316" shape-rendering="crispEdges"/>
   <polygon fill="#20928c" points="245.931,257.316 245.931,102.472 242.969,102.472 242.969,257.316" shape-rendering="crispEdges"/>
   <polygon fill="#20928c" points="248.894,257.316 248.894,101.126 245.931,101.126 245.931,257.316" shape-rendering="crispEdges"/>
   <polygon fill="#20928c" points="251.856,257.316 251.856,135.461 248.894,135.461 248.894,257.316" shape-rendering="crispEdges"/>
   <polygon fill="#20928c" points="254.819,257.316 254.819,142.193 251.856,142.193 251.856,257.316" shape-rendering="crispEdges"/>
   <polygon fill="#20928c" points="257.781,257.316 257.781,119.303 254.819,119.303 254.819,257.316" shape-rendering="crispEdges"/>
   <polygon fill="#20928c" points="260.744,257.316 260.744,152.965 257.781,152.965 257.781,257.316" shape-rendering="crispEdges"/>
   <polygon fill="#20928c" points="263.706,257.316 263.706,150.945 260.744,150.945 260.744,257.316" shape-rendering="crispEdges"/>
   <polygon fill="#20928c" points="266.669,257.316 266.669,154.985 263.706,154.985 263.706,257.316" shape-rendering="crispEdges"/>
   <polygon fill="#20928c" points="269.631,257.316 269.631,175.182 266.669,175.182 266.669,257.316" shape-rendering="crispEdges"/>
   <polygon fill="#20928c" points="272.594,257.316 272.594,177.201 269.631,177.201 269.631,257.316" shape-rendering="crispEdges"/>
   <polygon fill="#20928c" points="275.556,257.316 275.556,200.091 272.594,200.091 272.594,257.316" shape-rendering="crispEdges"/>
   <polygon fill="#20928c" points="278.519,257.316 278.519,203.458 275.556,203.458 275.556,257.316" shape-rendering="crispEdges"/>
   <polygon fill="#20928c" points="281.481,257.316 281.481,204.804 278.519,204.804 278.519,257.316" shape-rendering="crispEdges"/>
   <polygon fill="#20928c" points="284.443,257.316 284.443,202.784 281.481,202.784 281.481,257.316" shape-rendering="crispEdges"/>
   <polygon fill="#20928c" points="287.406,257.316 287.406,210.19 284.443,210.19 284.443,257.316" shape-rendering="crispEdges"/>
   <polygon fill="#20928c" points="290.368,257.316 290.368,221.635 287.406,221.635 287.406,257.316" shape-rendering="crispEdges"/>
   <polygon fill="#20928c" points="293.331,257.316 293.331,225.674 290.368,225.674 290.368,257.316" shape-rendering="crispEdges"/>
   <polygon fill="#20928c" points="296.293,257.316 296.293,220.962 293.331,220.962 293.331,257.316" shape-rendering="crispEdges"/>
   <polygon fill="#20928c" points="299.256,257.316 299.256,231.733 296.293,231.733 296.293,257.316" shape-rendering="crispEdges"/>
   <polygon fill="#20928c" points="302.218,257.316 305.181,257.316 305.181,229.714 302.218,229.714 299.256,229.714 299.256,257.316" shape-rendering="crispEdges"/>
   <polygon fill="#20928c" points="308.143,257.316 308.143,241.159 305.181,241.159 305.181,257.316" shape-rendering="crispEdges"/>
   <polygon fill="#20928c" points="311.106,257.316 311.106,243.178 308.143,243.178 308.143,257.316" shape-rendering="crispEdges"/>
   <polygon fill="#20928c" points="314.068,257.316 314.068,243.852 311.106,243.852 311.106,257.316" shape-rendering="crispEdges"/>
   <polygon fill="#20928c" points="317.031,257.316 317.031,246.545 314.068,246.545 314.068,257.316" shape-rendering="crispEdges"/>
   <polygon fill="#20928c" points="319.993,257.316 319.993,248.564 317.031,248.564 317.031,257.316" shape-rendering="crispEdges"/>
   <polygon fill="#20928c" points="322.956,257.316 322.956,249.911 319.993,249.911 319.993,257.316" shape-rendering="crispEdges"/>
   <polygon fill="#20928c" points="325.918,257.316 325.918,250.584 322.956,250.584 322.956,257.316" shape-rendering="crispEdges"/>
   <polygon fill="#20928c" points="328.88,257.316 328.88,253.95 325.918,253.95 325.918,257.316" shape-rendering="crispEdges"/>
   <polygon fill="#20928c" points="331.843,257.316 331.843,252.604 328.88,252.604 328.88,257.316" shape-rendering="crispEdges"/>
   <polygon fill="#20928c" points="334.805,257.316 334.805,254.623 331.843,254.623 331.843,257.316" shape-rendering="crispEdges"/>
   <polygon fill="#20928c" points="337.768,257.316 340.73,257.316 340.73,255.97 337.768,255.97 334.805,255.97 334.805,257.316" shape-rendering="crispEdges"/>
   <polygon fill="#20928c" points="343.693,257.316 343.693,255.297 340.73,255.297 340.73,257.316" shape-rendering="crispEdges"/>
   <polygon fill="#20928c" points="346.655,257.316 346.655,255.97 343.693,255.97 343.693,257.316" shape-rendering="crispEdges"/>
   <polygon fill="#20928c" points="352.58,257.316 352.58,255.97 349.618,255.97 349.618,257.316" shape-rendering="crispEdges"/>
   <polygon fill="#20928c" points="361.468,257.316 361.468,256.643 358.505,256.643 358.505,257.316" shape-rendering="crispEdges"/>
   <polygon fill="#20928c" points="364.43,257.316 364.43,255.97 361.468,255.97 361.468,257.316" shape-rendering="crispEdges"/>
   <polyline fill="none" stroke-linejoin="miter" points="71.1459,255.97 68.1834,255.97 68.1834,257.316 71.1459,257.316 71.1459,255.97" stroke-linecap="butt" stroke-width="0.5" stroke="#000000"/>
   <polyline fill="none" stroke-linejoin="miter" points="82.9957,256.643 80.0333,256.643 80.0333,257.316 82.9957,257.316 82.9957,256.643" stroke-linecap="butt" stroke-width="0.5" stroke="#000000"/>
   <polyline fill="none" stroke-linejoin="miter" points="85.9582,256.643 82.9957,256.643 82.9957,257.316 85.9582,257.316 85.9582,256.643" stroke-linecap="butt" stroke-width="0.5" stroke="#000000"/>
   <polyline fill="none" stroke-linejoin="miter" points="88.9207,255.97 85.9582,255.97 85.9582,257.316 88.9207,257.316 88.9207,255.97" stroke-linecap="butt" stroke-width="0.5" stroke="#000000"/>
   <polyline fill="none" stroke-linejoin="miter" points="91.8831,254.623 88.9207,254.623 88.9207,257.316 91.8831,257.316 91.8831,254.623" stroke-linecap="butt" stroke-width="0.5" stroke="#000000"/>
   <polyline fill="none" stroke-linejoin="miter" points="94.8456,253.95 91.8831,253.95 91.8831,257.316 94.8456,257.316 94.8456,253.95" stroke-linecap="butt" stroke-width="0.5" stroke="#000000"/>
   <polyline fill="none" stroke-linejoin="miter" points="97.8081,255.97 94.8456,255.97 94.8456,257.316 97.8081,257.316 97.8081,255.97" stroke-linecap="butt" stroke-width="0.5" stroke="#000000"/>
   <polyline fill="none" stroke-linejoin="miter" points="100.771,253.277 97.8081,253.277 97.8081,257.316 100.771,257.316 100.771,253.277" stroke-linecap="butt" stroke-width="0.5" stroke="#000000"/>
   <polyline fill="none" stroke-linejoin="miter" points="103.733,251.257 100.771,251.257 100.771,257.316 103.733,257.316 103.733,251.257" stroke-linecap="butt" stroke-width="0.5" stroke="#000000"/>
   <polyline fill="none" stroke-linejoin="miter" points="106.695,251.931 103.733,251.931 103.733,257.316 106.695,257.316 106.695,251.931" stroke-linecap="butt" stroke-width="0.5" stroke="#000000"/>
   <polyline fill="none" stroke-linejoin="miter" points="109.658,249.238 106.695,249.238 106.695,257.316 109.658,257.316 109.658,249.238" stroke-linecap="butt" stroke-width="0.5" stroke="#000000"/>
   <polyline fill="none" stroke-linejoin="miter" points="112.62,249.238 109.658,249.238 109.658,257.316 112.62,257.316 112.62,249.238" stroke-linecap="butt" stroke-width="0.5" stroke="#000000"/>
   <polyline fill="none" stroke-linejoin="miter" points="115.583,248.564 112.62,248.564 112.62,257.316 115.583,257.316 115.583,248.564" stroke-linecap="butt" stroke-width="0.5" stroke="#000000"/>
   <polyline fill="none" stroke-linejoin="miter" points="118.545,249.238 115.583,249.238 115.583,257.316 118.545,257.316 118.545,249.238" stroke-linecap="butt" stroke-width="0.5" stroke="#000000"/>
   <polyline fill="none" stroke-linejoin="miter" points="121.508,247.218 118.545,247.218 118.545,257.316 121.508,257.316 121.508,247.218" stroke-linecap="butt" stroke-width="0.5" stroke="#000000"/>
   <polyline fill="none" stroke-linejoin="miter" points="124.47,242.505 121.508,242.505 121.508,257.316 124.47,257.316 124.47,242.505" stroke-linecap="butt" stroke-width="0.5" stroke="#000000"/>
   <polyline fill="none" stroke-linejoin="miter" points="127.433,246.545 124.47,246.545 124.47,257.316 127.433,257.316 127.433,246.545" stroke-linecap="butt" stroke-width="0.5" stroke="#000000"/>
   <polyline fill="none" stroke-linejoin="miter" points="130.395,231.06 127.433,231.06 127.433,257.316 130.395,257.316 130.395,231.06" stroke-linecap="butt" stroke-width="0.5" stroke="#000000"/>
   <polyline fill="none" stroke-linejoin="miter" points="133.358,238.466 130.395,238.466 130.395,257.316 133.358,257.316 133.358,238.466" stroke-linecap="butt" stroke-width="0.5" stroke="#000000"/>
   <polyline fill="none" stroke-linejoin="miter" points="136.32,234.426 133.358,234.426 133.358,257.316 136.32,257.316 136.32,234.426" stroke-linecap="butt" stroke-width="0.5" stroke="#000000"/>
   <polyline fill="none" stroke-linejoin="miter" points="139.283,227.021 136.32,227.021 136.32,257.316 139.283,257.316 139.283,227.021" stroke-linecap="butt" stroke-width="0.5" stroke="#000000"/>
   <polyline fill="none" stroke-linejoin="miter" points="142.245,221.635 139.283,221.635 139.283,257.316 142.245,257.316 142.245,221.635" stroke-linecap="butt" stroke-width="0.5" stroke="#000000"/>
   <polyline fill="none" stroke-linejoin="miter" points="145.208,213.556 142.245,213.556 142.245,257.316 145.208,257.316 145.208,213.556" stroke-linecap="butt" stroke-width="0.5" stroke="#000000"/>
   <polyline fill="none" stroke-linejoin="miter" points="148.17,214.229 145.208,214.229 145.208,257.316 148.17,257.316 148.17,214.229" stroke-linecap="butt" stroke-width="0.5" stroke="#000000"/>
   <polyline fill="none" stroke-linejoin="miter" points="151.132,211.536 148.17,211.536 148.17,257.316 151.132,257.316 151.132,211.536" stroke-linecap="butt" stroke-width="0.5" stroke="#000000"/>
   <polyline fill="none" stroke-linejoin="miter" points="154.095,192.013 151.132,192.013 151.132,257.316 154.095,257.316 154.095,192.013" stroke-linecap="butt" stroke-width="0.5" stroke="#000000"/>
   <polyline fill="none" stroke-linejoin="miter" points="157.057,208.17 154.095,208.17 154.095,257.316 157.057,257.316 157.057,208.17" stroke-linecap="butt" stroke-width="0.5" stroke="#000000"/>
   <polyline fill="none" stroke-linejoin="miter" points="160.02,192.686 157.057,192.686 157.057,257.316 160.02,257.316 160.02,192.686" stroke-linecap="butt" stroke-width="0.5" stroke="#000000"/>
   <polyline fill="none" stroke-linejoin="miter" points="162.982,177.875 160.02,177.875 160.02,257.316 162.982,257.316 162.982,177.875" stroke-linecap="butt" stroke-width="0.5" stroke="#000000"/>
   <polyline fill="none" stroke-linejoin="miter" points="165.945,169.123 162.982,169.123 162.982,257.316 165.945,257.316 165.945,169.123" stroke-linecap="butt" stroke-width="0.5" stroke="#000000"/>
   <polyline fill="none" stroke-linejoin="miter" points="168.907,164.41 165.945,164.41 165.945,257.316 168.907,257.316 168.907,164.41" stroke-linecap="butt" stroke-width="0.5" stroke="#000000"/>
   <polyline fill="none" stroke-linejoin="miter" points="171.87,152.965 168.907,152.965 168.907,257.316 171.87,257.316 171.87,152.965" stroke-linecap="butt" stroke-width="0.5" stroke="#000000"/>
   <polyline fill="none" stroke-linejoin="miter" points="174.832,146.906 171.87,146.906 171.87,257.316 174.832,257.316 174.832,146.906" stroke-linecap="butt" stroke-width="0.5" stroke="#000000"/>
   <polyline fill="none" stroke-linejoin="miter" points="177.795,128.055 174.832,128.055 174.832,257.316 177.795,257.316 177.795,128.055" stroke-linecap="butt" stroke-width="0.5" stroke="#000000"/>
   <polyline fill="none" stroke-linejoin="miter" points="180.757,129.402 177.795,129.402 177.795,257.316 180.757,257.316 180.757,129.402" stroke-linecap="butt" stroke-width="0.5" stroke="#000000"/>
   <polyline fill="none" stroke-linejoin="miter" points="183.72,112.571 180.757,112.571 180.757,257.316 183.72,257.316 183.72,112.571" stroke-linecap="butt" stroke-width="0.5" stroke="#000000"/>
   <polyline fill="none" stroke-linejoin="miter" points="186.682,110.551 183.72,110.551 183.72,257.316 186.682,257.316 186.682,110.551" stroke-linecap="butt" stroke-width="0.5" stroke="#000000"/>
   <polyline fill="none" stroke-linejoin="miter" points="189.645,90.354 186.682,90.354 186.682,257.316 189.645,257.316 189.645,90.354" stroke-linecap="butt" stroke-width="0.5" stroke="#000000"/>
   <polyline fill="none" stroke-linejoin="miter" points="192.607,105.838 189.645,105.838 189.645,257.316 192.607,257.316 192.607,105.838" stroke-linecap="butt" stroke-width="0.5" stroke="#000000"/>
   <polyline fill="none" stroke-linejoin="miter" points="195.569,80.9287 192.607,80.9287 192.607,257.316 195.569,257.316 195.569,80.9287" stroke-linecap="butt" stroke-width="0.5" stroke="#000000"/>
   <polyline fill="none" stroke-linejoin="miter" points="198.532,104.492 195.569,104.492 195.569,257.316 198.532,257.316 198.532,104.492" stroke-linecap="butt" stroke-width="0.5" stroke="#000000"/>
   <polyline fill="none" stroke-linejoin="miter" points="201.494,91.7005 198.532,91.7005 198.532,257.316 201.494,257.316 201.494,91.7005" stroke-linecap="butt" stroke-width="0.5" stroke="#000000"/>
   <polyline fill="none" stroke-linejoin="miter" points="204.457,80.2555 201.494,80.2555 201.494,257.316 204.457,257.316 204.457,80.2555" stroke-linecap="butt" stroke-width="0.5" stroke="#000000"/>
   <polyline fill="none" stroke-linejoin="miter" points="207.419,74.8696 204.457,74.8696 204.457,257.316 207.419,257.316 207.419,74.8696" stroke-linecap="butt" stroke-width="0.5" stroke="#000000"/>
   <polyline fill="none" stroke-linejoin="miter" points="210.382,71.5034 207.419,71.5034 207.419,257.316 210.382,257.316 210.382,71.5034" stroke-linecap="butt" stroke-width="0.5" stroke="#000000"/>
   <polyline fill="none" stroke-linejoin="miter" points="213.344,53.3261 210.382,53.3261 210.382,257.316 213.344,257.316 213.344,53.3261" stroke-linecap="butt" stroke-width="0.5" stroke="#000000"/>
   <polyline fill="none" stroke-linejoin="miter" points="216.307,68.1372 213.344,68.1372 213.344,257.316 216.307,257.316 216.307,68.1372" stroke-linecap="butt" stroke-width="0.5" stroke="#000000"/>
   <polyline fill="none" stroke-linejoin="miter" points="219.269,57.3655 216.307,57.3655 216.307,257.316 219.269,257.316 219.269,57.3655" stroke-linecap="butt" stroke-width="0.5" stroke="#000000"/>
   <polyline fill="none" stroke-linejoin="miter" points="222.232,57.3655 219.269,57.3655 219.269,257.316 222.232,257.316 222.232,57.3655" stroke-linecap="butt" stroke-width="0.5" stroke="#000000"/>
   <polyline fill="none" stroke-linejoin="miter" points="225.194,55.3458 222.232,55.3458 222.232,257.316 225.194,257.316 225.194,55.3458" stroke-linecap="butt" stroke-width="0.5" stroke="#000000"/>
   <polyline fill="none" stroke-linejoin="miter" points="228.157,53.3261 225.194,53.3261 225.194,257.316 228.157,257.316 228.157,53.3261" stroke-linecap="butt" stroke-width="0.5" stroke="#000000"/>
   <polyline fill="none" stroke-linejoin="miter" points="231.119,64.7711 228.157,64.7711 228.157,257.316 231.119,257.316 231.119,64.7711" stroke-linecap="butt" stroke-width="0.5" stroke="#000000"/>
   <polyline fill="none" stroke-linejoin="miter" points="234.082,80.2555 231.119,80.2555 231.119,257.316 234.082,257.316 234.082,80.2555" stroke-linecap="butt" stroke-width="0.5" stroke="#000000"/>
   <polyline fill="none" stroke-linejoin="miter" points="237.044,79.5822 234.082,79.5822 234.082,257.316 237.044,257.316 237.044,79.5822" stroke-linecap="butt" stroke-width="0.5" stroke="#000000"/>
   <polyline fill="none" stroke-linejoin="miter" points="240.006,64.0978 237.044,64.0978 237.044,257.316 240.006,257.316 240.006,64.0978" stroke-linecap="butt" stroke-width="0.5" stroke="#000000"/>
   <polyline fill="none" stroke-linejoin="miter" points="242.969,96.4131 240.006,96.4131 240.006,257.316 242.969,257.316 242.969,96.4131" stroke-linecap="butt" stroke-width="0.5" stroke="#000000"/>
   <polyline fill="none" stroke-linejoin="miter" points="245.931,102.472 242.969,102.472 242.969,257.316 245.931,257.316 245.931,102.472" stroke-linecap="butt" stroke-width="0.5" stroke="#000000"/>
   <polyline fill="none" stroke-linejoin="miter" points="248.894,101.126 245.931,101.126 245.931,257.316 248.894,257.316 248.894,101.126" stroke-linecap="butt" stroke-width="0.5" stroke="#000000"/>
   <polyline fill="none" stroke-linejoin="miter" points="251.856,135.461 248.894,135.461 248.894,257.316 251.856,257.316 251.856,135.461" stroke-linecap="butt" stroke-width="0.5" stroke="#000000"/>
   <polyline fill="none" stroke-linejoin="miter" points="254.819,142.193 251.856,142.193 251.856,257.316 254.819,257.316 254.819,142.193" stroke-linecap="butt" stroke-width="0.5" stroke="#000000"/>
   <polyline fill="none" stroke-linejoin="miter" points="257.781,119.303 254.819,119.303 254.819,257.316 257.781,257.316 257.781,119.303" stroke-linecap="butt" stroke-width="0.5" stroke="#000000"/>
   <polyline fill="none" stroke-linejoin="miter" points="260.744,152.965 257.781,152.965 257.781,257.316 260.744,257.316 260.744,152.965" stroke-linecap="butt" stroke-width="0.5" stroke="#000000"/>
   <polyline fill="none" stroke-linejoin="miter" points="263.706,150.945 260.744,150.945 260.744,257.316 263.706,257.316 263.706,150.945" stroke-linecap="butt" stroke-width="0.5" stroke="#000000"/>
   <polyline fill="none" stroke-linejoin="miter" points="266.669,154.985 263.706,154.985 263.706,257.316 266.669,257.316 266.669,154.985" stroke-linecap="butt" stroke-width="0.5" stroke="#000000"/>
   <polyline fill="none" stroke-linejoin="miter" points="269.631,175.182 266.669,175.182 266.669,257.316 269.631,257.316 269.631,175.182" stroke-linecap="butt" stroke-width="0.5" stroke="#000000"/>
   <polyline fill="none" stroke-linejoin="miter" points="272.594,177.201 269.631,177.201 269.631,257.316 272.594,257.316 272.594,177.201" stroke-linecap="butt" stroke-width="0.5" stroke="#000000"/>
   <polyline fill="none" stroke-linejoin="miter" points="275.556,200.091 272.594,200.091 272.594,257.316 275.556,257.316 275.556,200.091" stroke-linecap="butt" stroke-width="0.5" stroke="#000000"/>
   <polyline fill="none" stroke-linejoin="miter" points="278.519,203.458 275.556,203.458 275.556,257.316 278.519,257.316 278.519,203.458" stroke-linecap="butt" stroke-width="0.5" stroke="#000000"/>
   <polyline fill="none" stroke-linejoin="miter" points="281.481,204.804 278.519,204.804 278.519,257.316 281.481,257.316 281.481,204.804" stroke-linecap="butt" stroke-width="0.5" stroke="#000000"/>
   <polyline fill="none" stroke-linejoin="miter" points="284.443,202.784 281.481,202.784 281.481,257.316 284.443,257.316 284.443,202.784" stroke-linecap="butt" stroke-width="0.5" stroke="#000000"/>
   <polyline fill="none" stroke-linejoin="miter" points="287.406,210.19 284.443,210.19 284.443,257.316 287.406,257.316 287.406,210.19" stroke-linecap="butt" stroke-width="0.5" stroke="#000000"/>
   <polyline fill="none" stroke-linejoin="miter" points="290.368,221.635 287.406,221.635 287.406,257.316 290.368,257.316 290.368,221.635" stroke-linecap="butt" stroke-width="0.5" stroke="#000000"/>
   <polyline fill="none" stroke-linejoin="miter" points="293.331,225.674 290.368,225.674 290.368,257.316 293.331,257.316 293.331,225.674" stroke-linecap="butt" stroke-width="0.5" stroke="#000000"/>
   <polyline fill="none" stroke-linejoin="miter" points="296.293,220.962 293.331,220.962 293.331,257.316 296.293,257.316 296.293,220.962" stroke-linecap="butt" stroke-width="0.5" stroke="#000000"/>
   <polyline fill="none" stroke-linejoin="miter" points="299.256,231.733 296.293,231.733 296.293,257.316 299.256,257.316 299.256,231.733" stroke-linecap="butt" stroke-width="0.5" stroke="#000000"/>
   <polyline fill="none" stroke-linejoin="miter" points="302.218,229.714 299.256,229.714 299.256,257.316 302.218,257.316 302.218,229.714" stroke-linecap="butt" stroke-width="0.5" stroke="#000000"/>
   <polyline fill="none" stroke-linejoin="miter" points="305.181,229.714 302.218,229.714 302.218,257.316 305.181,257.316 305.181,229.714" stroke-linecap="butt" stroke-width="0.5" stroke="#000000"/>
   <polyline fill="none" stroke-linejoin="miter" points="308.143,241.159 305.181,241.159 305.181,257.316 308.143,257.316 308.143,241.159" stroke-linecap="butt" stroke-width="0.5" stroke="#000000"/>
   <polyline fill="none" stroke-linejoin="miter" points="311.106,243.178 308.143,243.178 308.143,257.316 311.106,257.316 311.106,243.178" stroke-linecap="butt" stroke-width="0.5" stroke="#000000"/>
   <polyline fill="none" stroke-linejoin="miter" points="314.068,243.852 311.106,243.852 311.106,257.316 314.068,257.316 314.068,243.852" stroke-linecap="butt" stroke-width="0.5" stroke="#000000"/>
   <polyline fill="none" stroke-linejoin="miter" points="317.031,246.545 314.068,246.545 314.068,257.316 317.031,257.316 317.031,246.545" stroke-linecap="butt" stroke-width="0.5" stroke="#000000"/>
   <polyline fill="none" stroke-linejoin="miter" points="319.993,248.564 317.031,248.564 317.031,257.316 319.993,257.316 319.993,248.564" stroke-linecap="butt" stroke-width="0.5" stroke="#000000"/>
   <polyline fill="none" stroke-linejoin="miter" points="322.956,249.911 319.993,249.911 319.993,257.316 322.956,257.316 322.956,249.911" stroke-linecap="butt" stroke-width="0.5" stroke="#000000"/>
   <polyline fill="none" stroke-linejoin="miter" points="325.918,250.584 322.956,250.584 322.956,257.316 325.918,257.316 325.918,250.584" stroke-linecap="butt" stroke-width="0.5" stroke="#000000"/>
   <polyline fill="none" stroke-linejoin="miter" points="328.88,253.95 325.918,253.95 325.918,257.316 328.88,257.316 328.88,253.95" stroke-linecap="butt" stroke-width="0.5" stroke="#000000"/>
   <polyline fill="none" stroke-linejoin="miter" points="331.843,252.604 328.88,252.604 328.88,257.316 331.843,257.316 331.843,252.604" stroke-linecap="butt" stroke-width="0.5" stroke="#000000"/>
   <polyline fill="none" stroke-linejoin="miter" points="334.805,254.623 331.843,254.623 331.843,257.316 334.805,257.316 334.805,254.623" stroke-linecap="butt" stroke-width="0.5" stroke="#000000"/>
   <polyline fill="none" stroke-linejoin="miter" points="337.768,255.97 334.805,255.97 334.805,257.316 337.768,257.316 337.768,255.97" stroke-linecap="butt" stroke-width="0.5" stroke="#000000"/>
   <polyline fill="none" stroke-linejoin="miter" points="340.73,255.97 337.768,255.97 337.768,257.316 340.73,257.316 340.73,255.97" stroke-linecap="butt" stroke-width="0.5" stroke="#000000"/>
   <polyline fill="none" stroke-linejoin="miter" points="343.693,255.297 340.73,255.297 340.73,257.316 343.693,257.316 343.693,255.297" stroke-linecap="butt" stroke-width="0.5" stroke="#000000"/>
   <polyline fill="none" stroke-linejoin="miter" points="346.655,255.97 343.693,255.97 343.693,257.316 346.655,257.316 346.655,255.97" stroke-linecap="butt" stroke-width="0.5" stroke="#000000"/>
   <polyline fill="none" stroke-linejoin="miter" points="352.58,255.97 349.618,255.97 349.618,257.316 352.58,257.316 352.58,255.97" stroke-linecap="butt" stroke-width="0.5" stroke="#000000"/>
   <polyline fill="none" stroke-linejoin="miter" points="361.468,256.643 358.505,256.643 358.505,257.316 361.468,257.316 361.468,256.643" stroke-linecap="butt" stroke-width="0.5" stroke="#000000"/>
   <polyline fill="none" stroke-linejoin="miter" points="364.43,255.97 361.468,255.97 361.468,257.316 364.43,257.316 364.43,255.97" stroke-linecap="butt" stroke-width="0.5" stroke="#000000"/>
   <polyline fill="none" stroke-linejoin="miter" points="54.5283,257.316 54.5283,254.071" stroke-linecap="butt" stroke-width="0.5" stroke="#262626"/>
   <polyline fill="none" stroke-linejoin="miter" points="54.5283,21.684 54.5283,24.9297" stroke-linecap="butt" stroke-width="0.5" stroke="#262626"/>
   <polyline fill="none" stroke-linejoin="miter" points="135.796,257.316 135.796,254.071" stroke-linecap="butt" stroke-width="0.5" stroke="#262626"/>
   <polyline fill="none" stroke-linejoin="miter" points="135.796,21.684 135.796,24.9297" stroke-linecap="butt" stroke-width="0.5" stroke="#262626"/>
   <polyline fill="none" stroke-linejoin="miter" points="217.064,257.316 217.064,254.071" stroke-linecap="butt" stroke-width="0.5" stroke="#262626"/>
   <polyline fill="none" stroke-linejoin="miter" points="217.064,21.684 217.064,24.9297" stroke-linecap="butt" stroke-width="0.5" stroke="#262626"/>
   <polyline fill="none" stroke-linejoin="miter" points="298.332,257.316 298.332,254.071" stroke-linecap="butt" stroke-width="0.5" stroke="#262626"/>
   <polyline fill="none" stroke-linejoin="miter" points="298.332,21.684 298.332,24.9297" stroke-linecap="butt" stroke-width="0.5" stroke="#262626"/>
   <polyline fill="none" stroke-linejoin="miter" points="379.601,257.316 379.601,254.071" stroke-linecap="butt" stroke-width="0.5" stroke="#262626"/>
   <polyline fill="none" stroke-linejoin="miter" points="379.601,21.684 379.601,24.9297" stroke-linecap="butt" stroke-width="0.5" stroke="#262626"/>
   <g xml:space="preserve" transform="translate(50.0283,272.805) rotate(-0,4.5,-8)" font-weight="normal" font-style="normal" font-family="FreeSans" font-size="10">
    <text fill="rgb(38,38,38)" x="0 3 " y="-0">-4</text>
   </g>
   <g xml:space="preserve" transform="translate(131.296,272.805) rotate(-0,4.5,-8)" font-weight="normal" font-style="normal" font-family="FreeSans" font-size="10">
    <text fill="rgb(38,38,38)" x="0 3 " y="-0">-2</text>
   </g>
   <g xml:space="preserve" transform="translate(214.064,272.805) rotate(-0,3,-8)" font-weight="normal" font-style="normal" font-family="FreeSans" font-size="10">
    <text fill="rgb(38,38,38)" x="0 " y="-0">0</text>
   </g>
   <g xml:space="preserve" transform="translate(295.332,272.805) rotate(-0,3,-8)" font-weight="normal" font-style="normal" font-family="FreeSans" font-size="10">
    <text fill="rgb(38,38,38)" x="0 " y="-0">2</text>
   </g>
   <g xml:space="preserve" transform="translate(376.601,272.805) rotate(-0,3,-8)" font-weight="normal" font-style="normal" font-family="FreeSans" font-size="10">
    <text fill="rgb(38,38,38)" x="0 " y="-0">4</text>
   </g>
   <polyline fill="none" stroke-linejoin="miter" points="54.5283,257.316 57.7797,257.316" stroke-linecap="butt" stroke-width="0.5" stroke="#262626"/>
   <polyline fill="none" stroke-linejoin="miter" points="379.601,257.316 376.349,257.316" stroke-linecap="butt" stroke-width="0.5" stroke="#262626"/>
   <polyline fill="none" stroke-linejoin="miter" points="54.5283,223.655 57.7797,223.655" stroke-linecap="butt" stroke-width="0.5" stroke="#262626"/>
   <polyline fill="none" stroke-linejoin="miter" points="379.601,223.655 376.349,223.655" stroke-linecap="butt" stroke-width="0.5" stroke="#262626"/>
   <polyline fill="none" stroke-linejoin="miter" points="54.5283,189.993 57.7797,189.993" stroke-linecap="butt" stroke-width="0.5" stroke="#262626"/>
   <polyline fill="none" stroke-linejoin="miter" points="379.601,189.993 376.349,189.993" stroke-linecap="butt" stroke-width="0.5" stroke="#262626"/>
   <polyline fill="none" stroke-linejoin="miter" points="54.5283,156.331 57.7797,156.331" stroke-linecap="butt" stroke-width="0.5" stroke="#262626"/>
   <polyline fill="none" stroke-linejoin="miter" points="379.601,156.331 376.349,156.331" stroke-linecap="butt" stroke-width="0.5" stroke="#262626"/>
   <polyline fill="none" stroke-linejoin="miter" points="54.5283,122.669 57.7797,122.669" stroke-linecap="butt" stroke-width="0.5" stroke="#262626"/>
   <polyline fill="none" stroke-linejoin="miter" points="379.601,122.669 376.349,122.669" stroke-linecap="butt" stroke-width="0.5" stroke="#262626"/>
   <polyline fill="none" stroke-linejoin="miter" points="54.5283,89.0076 57.7797,89.0076" stroke-linecap="butt" stroke-width="0.5" stroke="#262626"/>
   <polyline fill="none" stroke-linejoin="miter" points="379.601,89.0076 376.349,89.0076" stroke-linecap="butt" stroke-width="0.5" stroke="#262626"/>
   <polyline fill="none" stroke-linejoin="miter" points="54.5283,55.3458 57.7797,55.3458" stroke-linecap="butt" stroke-width="0.5" stroke="#262626"/>
   <polyline fill="none" stroke-linejoin="miter" points="379.601,55.3458 376.349,55.3458" stroke-linecap="butt" stroke-width="0.5" stroke="#262626"/>
   <polyline fill="none" stroke-linejoin="miter" points="54.5283,21.684 57.7797,21.684" stroke-linecap="butt" stroke-width="0.5" stroke="#262626"/>
   <polyline fill="none" stroke-linejoin="miter" points="379.601,21.684 376.349,21.684" stroke-linecap="butt" stroke-width="0.5" stroke="#262626"/>
   <g xml:space="preserve" transform="translate(43.5271,261.316) rotate(-0,6,-4)" font-weight="normal" font-style="normal" font-family="FreeSans" font-size="10">
    <text fill="rgb(38,38,38)" x="0 " y="-0">0</text>
   </g>
   <g xml:space="preserve" transform="translate(37.5271,227.655) rotate(-0,12,-4)" font-weight="normal" font-style="normal" font-family="FreeSans" font-size="10">
    <text fill="rgb(38,38,38)" x="0 6 " y="-0">50</text>
   </g>
   <g xml:space="preserve" transform="translate(31.5271,193.993) rotate(-0,18,-4)" font-weight="normal" font-style="normal" font-family="FreeSans" font-size="10">
    <text fill="rgb(38,38,38)" x="0 6 12 " y="-0">100</text>
   </g>
   <g xml:space="preserve" transform="translate(31.5271,160.331) rotate(-0,18,-4)" font-weight="normal" font-style="normal" font-family="FreeSans" font-size="10">
    <text fill="rgb(38,38,38)" x="0 6 12 " y="-0">150</text>
   </g>
   <g xml:space="preserve" transform="translate(31.5271,126.669) rotate(-0,18,-4)" font-weight="normal" font-style="normal" font-family="FreeSans" font-size="10">
    <text fill="rgb(38,38,38)" x="0 6 12 " y="-0">200</text>
   </g>
   <g xml:space="preserve" transform="translate(31.5271,93.0075) rotate(-0,18,-4)" font-weight="normal" font-style="normal" font-family="FreeSans" font-size="10">
    <text fill="rgb(38,38,38)" x="0 6 12 " y="-0">250</text>
   </g>
   <g xml:space="preserve" transform="translate(31.5271,59.3457) rotate(-0,18,-4)" font-weight="normal" font-style="normal" font-family="FreeSans" font-size="10">
    <text fill="rgb(38,38,38)" x="0 6 12 " y="-0">300</text>
   </g>
   <g xml:space="preserve" transform="translate(31.5271,25.684) rotate(-0,18,-4)" font-weight="normal" font-style="normal" font-family="FreeSans" font-size="10">
    <text fill="rgb(38,38,38)" x="0 6 12 " y="-0">350</text>
   </g>
   <polyline stroke-dasharray="16,0" fill="none" stroke-linejoin="miter" points="54.5283,257.316 379.601,257.316" stroke-linecap="square" stroke-width="0.5" stroke="#262626"/>
   <polyline stroke-dasharray="16,0" fill="none" stroke-linejoin="miter" points="54.5283,21.684 379.601,21.684" stroke-linecap="square" stroke-width="0.5" stroke="#262626"/>
   <polyline stroke-dasharray="16,0" fill="none" stroke-linejoin="miter" points="54.5283,257.316 54.5283,21.684" stroke-linecap="square" stroke-width="0.5" stroke="#262626"/>
   <polyline stroke-dasharray="16,0" fill="none" stroke-linejoin="miter" points="379.601,257.316 379.601,21.684" stroke-linecap="square" stroke-width="0.5" stroke="#262626"/>
  </g>
 </g>
</svg>
