<?xml version='1.0' encoding='UTF-8' standalone='no'?>
<svg height="689pt" viewBox="0 0 1438 689" xmlns:xlink="http://www.w3.org/1999/xlink" xmlns="http://www.w3.org/2000/svg" width="1438pt">
 <title>Figure 1</title>
 <desc>
Creator: GL2PS 1.4.2, (C) 1999-2020 C. Geuzaine
For: Octave
CreationDate: Sat Mar  9 09:54:15 2024
</desc>
 <defs/>
 <polygon fill="#ffffff" points="0,0 1438,0 1438,689 0,689"/>
 <g>
  <polygon shape-rendering="crispEdges" fill="#ffffff" points="0,689 1438,689 1438,0 0,0"/>
  <clipPath id="cp001438689">
   <polygon points="0,689 1438,689 1438,0 0,0"/>
  </clipPath>
  <g clip-path="url(#cp001438689)">
   <polygon shape-rendering="crispEdges" fill="#ffffff" points="186.954,284.89 651.744,284.89 651.744,60.5391 186.954,60.5391"/>
   <polyline stroke="#262626" stroke-width="0.5" fill="none" stroke-linecap="butt" stroke-linejoin="miter" points="186.954,284.89 186.954,280.235"/>
   <polyline stroke="#262626" stroke-width="0.5" fill="none" stroke-linecap="butt" stroke-linejoin="miter" points="186.954,60.5391 186.954,65.1943"/>
   <polyline stroke="#262626" stroke-width="0.5" fill="none" stroke-linecap="butt" stroke-linejoin="miter" points="264.419,284.89 264.419,280.235"/>
   <polyline stroke="#262626" stroke-width="0.5" fill="none" stroke-linecap="butt" stroke-linejoin="miter" points="264.419,60.5391 264.419,65.1943"/>
   <polyline stroke="#262626" stroke-width="0.5" fill="none" stroke-linecap="butt" stroke-linejoin="miter" points="341.884,284.89 341.884,280.235"/>
   <polyline stroke="#262626" stroke-width="0.5" fill="none" stroke-linecap="butt" stroke-linejoin="miter" points="341.884,60.5391 341.884,65.1943"/>
   <polyline stroke="#262626" stroke-width="0.5" fill="none" stroke-linecap="butt" stroke-linejoin="miter" points="419.349,284.89 419.349,280.235"/>
   <polyline stroke="#262626" stroke-width="0.5" fill="none" stroke-linecap="butt" stroke-linejoin="miter" points="419.349,60.5391 419.349,65.1943"/>
   <polyline stroke="#262626" stroke-width="0.5" fill="none" stroke-linecap="butt" stroke-linejoin="miter" points="496.814,284.89 496.814,280.235"/>
   <polyline stroke="#262626" stroke-width="0.5" fill="none" stroke-linecap="butt" stroke-linejoin="miter" points="496.814,60.5391 496.814,65.1943"/>
   <polyline stroke="#262626" stroke-width="0.5" fill="none" stroke-linecap="butt" stroke-linejoin="miter" points="574.279,284.89 574.279,280.235"/>
   <polyline stroke="#262626" stroke-width="0.5" fill="none" stroke-linecap="butt" stroke-linejoin="miter" points="574.279,60.5391 574.279,65.1943"/>
   <polyline stroke="#262626" stroke-width="0.5" fill="none" stroke-linecap="butt" stroke-linejoin="miter" points="651.744,284.89 651.744,280.235"/>
   <polyline stroke="#262626" stroke-width="0.5" fill="none" stroke-linecap="butt" stroke-linejoin="miter" points="651.744,60.5391 651.744,65.1943"/>
   <g xml:space="preserve" font-weight="normal" font-style="normal" font-family="FreeSans" font-size="10" transform="translate(183.954,300.402) rotate(-0,3,-8)">
    <text y="-0" fill="rgb(38,38,38)" x="0 ">0</text>
   </g>
   <g xml:space="preserve" font-weight="normal" font-style="normal" font-family="FreeSans" font-size="10" transform="translate(247.919,300.402) rotate(-0,16.5,-8)">
    <text y="-0" fill="rgb(38,38,38)" x="0 6 9 15 21 27 ">0.0005</text>
   </g>
   <g xml:space="preserve" font-weight="normal" font-style="normal" font-family="FreeSans" font-size="10" transform="translate(328.384,300.402) rotate(-0,13.5,-8)">
    <text y="-0" fill="rgb(38,38,38)" x="0 6 9 15 21 ">0.001</text>
   </g>
   <g xml:space="preserve" font-weight="normal" font-style="normal" font-family="FreeSans" font-size="10" transform="translate(402.849,300.402) rotate(-0,16.5,-8)">
    <text y="-0" fill="rgb(38,38,38)" x="0 6 9 15 21 27 ">0.0015</text>
   </g>
   <g xml:space="preserve" font-weight="normal" font-style="normal" font-family="FreeSans" font-size="10" transform="translate(483.314,300.402) rotate(-0,13.5,-8)">
    <text y="-0" fill="rgb(38,38,38)" x="0 6 9 15 21 ">0.002</text>
   </g>
   <g xml:space="preserve" font-weight="normal" font-style="normal" font-family="FreeSans" font-size="10" transform="translate(557.779,300.402) rotate(-0,16.5,-8)">
    <text y="-0" fill="rgb(38,38,38)" x="0 6 9 15 21 27 ">0.0025</text>
   </g>
   <g xml:space="preserve" font-weight="normal" font-style="normal" font-family="FreeSans" font-size="10" transform="translate(638.244,300.402) rotate(-0,13.5,-8)">
    <text y="-0" fill="rgb(38,38,38)" x="0 6 9 15 21 ">0.003</text>
   </g>
   <polyline stroke="#262626" stroke-width="0.5" fill="none" stroke-linecap="butt" stroke-linejoin="miter" points="186.954,284.89 191.6,284.89"/>
   <polyline stroke="#262626" stroke-width="0.5" fill="none" stroke-linecap="butt" stroke-linejoin="miter" points="651.744,284.89 647.098,284.89"/>
   <polyline stroke="#262626" stroke-width="0.5" fill="none" stroke-linecap="butt" stroke-linejoin="miter" points="186.954,247.498 191.6,247.498"/>
   <polyline stroke="#262626" stroke-width="0.5" fill="none" stroke-linecap="butt" stroke-linejoin="miter" points="651.744,247.498 647.098,247.498"/>
   <polyline stroke="#262626" stroke-width="0.5" fill="none" stroke-linecap="butt" stroke-linejoin="miter" points="186.954,210.106 191.6,210.106"/>
   <polyline stroke="#262626" stroke-width="0.5" fill="none" stroke-linecap="butt" stroke-linejoin="miter" points="651.744,210.106 647.098,210.106"/>
   <polyline stroke="#262626" stroke-width="0.5" fill="none" stroke-linecap="butt" stroke-linejoin="miter" points="186.954,172.715 191.6,172.715"/>
   <polyline stroke="#262626" stroke-width="0.5" fill="none" stroke-linecap="butt" stroke-linejoin="miter" points="651.744,172.715 647.098,172.715"/>
   <polyline stroke="#262626" stroke-width="0.5" fill="none" stroke-linecap="butt" stroke-linejoin="miter" points="186.954,135.323 191.6,135.323"/>
   <polyline stroke="#262626" stroke-width="0.5" fill="none" stroke-linecap="butt" stroke-linejoin="miter" points="651.744,135.323 647.098,135.323"/>
   <polyline stroke="#262626" stroke-width="0.5" fill="none" stroke-linecap="butt" stroke-linejoin="miter" points="186.954,97.931 191.6,97.931"/>
   <polyline stroke="#262626" stroke-width="0.5" fill="none" stroke-linecap="butt" stroke-linejoin="miter" points="651.744,97.931 647.098,97.931"/>
   <polyline stroke="#262626" stroke-width="0.5" fill="none" stroke-linecap="butt" stroke-linejoin="miter" points="186.954,60.5391 191.6,60.5391"/>
   <polyline stroke="#262626" stroke-width="0.5" fill="none" stroke-linecap="butt" stroke-linejoin="miter" points="651.744,60.5391 647.098,60.5391"/>
   <g xml:space="preserve" font-weight="normal" font-style="normal" font-family="FreeSans" font-size="10" transform="translate(172.956,288.89) rotate(-0,9,-4)">
    <text y="-0" fill="rgb(38,38,38)" x="0 3 ">-6</text>
   </g>
   <g xml:space="preserve" font-weight="normal" font-style="normal" font-family="FreeSans" font-size="10" transform="translate(172.956,251.498) rotate(-0,9,-4)">
    <text y="-0" fill="rgb(38,38,38)" x="0 3 ">-4</text>
   </g>
   <g xml:space="preserve" font-weight="normal" font-style="normal" font-family="FreeSans" font-size="10" transform="translate(172.956,214.106) rotate(-0,9,-4)">
    <text y="-0" fill="rgb(38,38,38)" x="0 3 ">-2</text>
   </g>
   <g xml:space="preserve" font-weight="normal" font-style="normal" font-family="FreeSans" font-size="10" transform="translate(175.956,176.715) rotate(-0,6,-4)">
    <text y="-0" fill="rgb(38,38,38)" x="0 ">0</text>
   </g>
   <g xml:space="preserve" font-weight="normal" font-style="normal" font-family="FreeSans" font-size="10" transform="translate(175.956,139.323) rotate(-0,6,-4)">
    <text y="-0" fill="rgb(38,38,38)" x="0 ">2</text>
   </g>
   <g xml:space="preserve" font-weight="normal" font-style="normal" font-family="FreeSans" font-size="10" transform="translate(175.956,101.931) rotate(-0,6,-4)">
    <text y="-0" fill="rgb(38,38,38)" x="0 ">4</text>
   </g>
   <g xml:space="preserve" font-weight="normal" font-style="normal" font-family="FreeSans" font-size="10" transform="translate(175.956,64.5391) rotate(-0,6,-4)">
    <text y="-0" fill="rgb(38,38,38)" x="0 ">6</text>
   </g>
   <polyline stroke="#262626" stroke-width="0.5" stroke-dasharray="16,0" fill="none" stroke-linecap="square" stroke-linejoin="miter" points="186.954,284.89 651.744,284.89"/>
   <polyline stroke="#262626" stroke-width="0.5" stroke-dasharray="16,0" fill="none" stroke-linecap="square" stroke-linejoin="miter" points="186.954,60.5391 651.744,60.5391"/>
   <polyline stroke="#262626" stroke-width="0.5" stroke-dasharray="16,0" fill="none" stroke-linecap="square" stroke-linejoin="miter" points="186.954,284.89 186.954,60.5391"/>
   <polyline stroke="#262626" stroke-width="0.5" stroke-dasharray="16,0" fill="none" stroke-linecap="square" stroke-linejoin="miter" points="651.744,284.89 651.744,60.5391"/>
   <g xml:space="preserve" font-weight="bold" font-style="normal" font-family="FreeSans" font-size="11" transform="translate(408.349,50.5391) rotate(-0,11,0)">
    <text y="-3" fill="rgb(0,0,0)" x="0 ">x</text>
    <text y="-1" fill="rgb(0,0,0)" x="6 " font-size="7.7">1</text>
    <text y="-3" fill="rgb(0,0,0)" x="10 14 18 ">(t)</text>
   </g>
   <polyline stroke="#ff0000" stroke-width="0.5" fill="none" stroke-linecap="butt" stroke-linejoin="round" points="186.954,79.235 190.053,79.9722 193.151,82.1719 196.25,85.7995 199.348,90.7979 202.447,97.0881 205.546,104.571 208.644,113.128 211.743,122.626 214.841,132.913 217.94,143.828 221.039,155.198 224.137,166.845 227.236,178.584 230.334,190.231 233.433,201.601 236.532,212.516 239.63,222.803 242.729,232.301 245.827,240.858 248.926,248.341 252.025,254.631 255.123,259.63 258.222,263.257 261.32,265.457 264.419,266.194 267.518,265.457 270.616,263.257 273.715,259.63 276.813,254.631 279.912,248.341 283.011,240.858 286.109,232.301 289.208,222.803 292.306,212.516 295.405,201.601 298.504,190.231 301.602,178.584 304.701,166.845 307.799,155.198 310.898,143.828 313.997,132.913 317.095,122.626 320.194,113.128 323.292,104.571 326.391,97.0881 329.49,90.7979 332.588,85.7995 335.687,82.1719 338.785,79.9722 341.884,79.235 344.983,79.9722 348.081,82.1719 351.18,85.7995 354.278,90.7979 357.377,97.0881 360.476,104.571 363.574,113.128 366.673,122.626 369.771,132.913 372.87,143.828 375.969,155.198 379.067,166.845 382.166,178.584 385.264,190.231 388.363,201.601 391.462,212.516 394.56,222.803 397.659,232.301 400.757,240.858 403.856,248.341 406.955,254.631 410.053,259.63 413.152,263.257 416.25,265.457 419.349,266.194 422.448,265.457 425.546,263.257 428.645,259.63 431.743,254.631 434.842,248.341 437.941,240.858 441.039,232.301 444.138,222.803 447.236,212.516 450.335,201.601 453.434,190.231 456.532,178.584 459.631,166.845 462.729,155.198 465.828,143.828 468.927,132.913 472.025,122.626 475.124,113.128 478.222,104.571 481.321,97.0881 484.42,90.7979 487.518,85.7995 490.617,82.1719 493.715,79.9722 496.814,79.235 499.913,79.9722 503.011,82.1719 506.11,85.7995 509.208,90.7979 512.307,97.0881 515.406,104.571 518.504,113.128 521.603,122.626 524.701,132.913 527.8,143.828 530.899,155.198 533.997,166.845 537.096,178.584 540.194,190.231 543.293,201.601 546.392,212.516 549.49,222.803 552.589,232.301 555.687,240.858 558.786,248.341 561.885,254.631 564.983,259.63 568.082,263.257 571.18,265.457 574.279,266.194 577.378,265.457 580.476,263.257 583.575,259.63 586.673,254.631 589.772,248.341 592.871,240.858 595.969,232.301 599.068,222.803 602.166,212.516 605.265,201.601 608.364,190.231 611.462,178.584 614.561,166.845 617.659,155.198 620.758,143.828 623.857,132.913 626.955,122.626 630.054,113.128 633.152,104.571 636.251,97.0881 639.35,90.7979 642.448,85.7995 645.547,82.1719 648.645,79.9722 651.744,79.235 652.209,79.3456"/>
  </g>
  <clipPath id="cp001438689">
   <polygon points="0,689 1438,689 1438,0 0,0"/>
  </clipPath>
  <g clip-path="url(#cp001438689)">
   <polygon shape-rendering="crispEdges" fill="#ffffff" points="836.698,284.89 1301.49,284.89 1301.49,60.5391 836.698,60.5391"/>
   <polyline stroke="#262626" stroke-width="0.5" fill="none" stroke-linecap="butt" stroke-linejoin="miter" points="836.698,284.89 836.698,280.235"/>
   <polyline stroke="#262626" stroke-width="0.5" fill="none" stroke-linecap="butt" stroke-linejoin="miter" points="836.698,60.5391 836.698,65.1943"/>
   <polyline stroke="#262626" stroke-width="0.5" fill="none" stroke-linecap="butt" stroke-linejoin="miter" points="914.163,284.89 914.163,280.235"/>
   <polyline stroke="#262626" stroke-width="0.5" fill="none" stroke-linecap="butt" stroke-linejoin="miter" points="914.163,60.5391 914.163,65.1943"/>
   <polyline stroke="#262626" stroke-width="0.5" fill="none" stroke-linecap="butt" stroke-linejoin="miter" points="991.628,284.89 991.628,280.235"/>
   <polyline stroke="#262626" stroke-width="0.5" fill="none" stroke-linecap="butt" stroke-linejoin="miter" points="991.628,60.5391 991.628,65.1943"/>
   <polyline stroke="#262626" stroke-width="0.5" fill="none" stroke-linecap="butt" stroke-linejoin="miter" points="1069.09,284.89 1069.09,280.235"/>
   <polyline stroke="#262626" stroke-width="0.5" fill="none" stroke-linecap="butt" stroke-linejoin="miter" points="1069.09,60.5391 1069.09,65.1943"/>
   <polyline stroke="#262626" stroke-width="0.5" fill="none" stroke-linecap="butt" stroke-linejoin="miter" points="1146.56,284.89 1146.56,280.235"/>
   <polyline stroke="#262626" stroke-width="0.5" fill="none" stroke-linecap="butt" stroke-linejoin="miter" points="1146.56,60.5391 1146.56,65.1943"/>
   <polyline stroke="#262626" stroke-width="0.5" fill="none" stroke-linecap="butt" stroke-linejoin="miter" points="1224.02,284.89 1224.02,280.235"/>
   <polyline stroke="#262626" stroke-width="0.5" fill="none" stroke-linecap="butt" stroke-linejoin="miter" points="1224.02,60.5391 1224.02,65.1943"/>
   <polyline stroke="#262626" stroke-width="0.5" fill="none" stroke-linecap="butt" stroke-linejoin="miter" points="1301.49,284.89 1301.49,280.235"/>
   <polyline stroke="#262626" stroke-width="0.5" fill="none" stroke-linecap="butt" stroke-linejoin="miter" points="1301.49,60.5391 1301.49,65.1943"/>
   <g xml:space="preserve" font-weight="normal" font-style="normal" font-family="FreeSans" font-size="10" transform="translate(833.698,300.402) rotate(-0,3,-8)">
    <text y="-0" fill="rgb(38,38,38)" x="0 ">0</text>
   </g>
   <g xml:space="preserve" font-weight="normal" font-style="normal" font-family="FreeSans" font-size="10" transform="translate(897.663,300.402) rotate(-0,16.5,-8)">
    <text y="-0" fill="rgb(38,38,38)" x="0 6 9 15 21 27 ">0.0005</text>
   </g>
   <g xml:space="preserve" font-weight="normal" font-style="normal" font-family="FreeSans" font-size="10" transform="translate(978.128,300.402) rotate(-0,13.5,-8)">
    <text y="-0" fill="rgb(38,38,38)" x="0 6 9 15 21 ">0.001</text>
   </g>
   <g xml:space="preserve" font-weight="normal" font-style="normal" font-family="FreeSans" font-size="10" transform="translate(1052.59,300.402) rotate(-0,16.5,-8)">
    <text y="-0" fill="rgb(38,38,38)" x="0 6 9 15 21 27 ">0.0015</text>
   </g>
   <g xml:space="preserve" font-weight="normal" font-style="normal" font-family="FreeSans" font-size="10" transform="translate(1133.06,300.402) rotate(-0,13.5,-8)">
    <text y="-0" fill="rgb(38,38,38)" x="0 6 9 15 21 ">0.002</text>
   </g>
   <g xml:space="preserve" font-weight="normal" font-style="normal" font-family="FreeSans" font-size="10" transform="translate(1207.52,300.402) rotate(-0,16.5,-8)">
    <text y="-0" fill="rgb(38,38,38)" x="0 6 9 15 21 27 ">0.0025</text>
   </g>
   <g xml:space="preserve" font-weight="normal" font-style="normal" font-family="FreeSans" font-size="10" transform="translate(1287.99,300.402) rotate(-0,13.5,-8)">
    <text y="-0" fill="rgb(38,38,38)" x="0 6 9 15 21 ">0.003</text>
   </g>
   <polyline stroke="#262626" stroke-width="0.5" fill="none" stroke-linecap="butt" stroke-linejoin="miter" points="836.698,284.89 841.343,284.89"/>
   <polyline stroke="#262626" stroke-width="0.5" fill="none" stroke-linecap="butt" stroke-linejoin="miter" points="1301.49,284.89 1296.84,284.89"/>
   <polyline stroke="#262626" stroke-width="0.5" fill="none" stroke-linecap="butt" stroke-linejoin="miter" points="836.698,228.802 841.343,228.802"/>
   <polyline stroke="#262626" stroke-width="0.5" fill="none" stroke-linecap="butt" stroke-linejoin="miter" points="1301.49,228.802 1296.84,228.802"/>
   <polyline stroke="#262626" stroke-width="0.5" fill="none" stroke-linecap="butt" stroke-linejoin="miter" points="836.698,172.715 841.343,172.715"/>
   <polyline stroke="#262626" stroke-width="0.5" fill="none" stroke-linecap="butt" stroke-linejoin="miter" points="1301.49,172.715 1296.84,172.715"/>
   <polyline stroke="#262626" stroke-width="0.5" fill="none" stroke-linecap="butt" stroke-linejoin="miter" points="836.698,116.627 841.343,116.627"/>
   <polyline stroke="#262626" stroke-width="0.5" fill="none" stroke-linecap="butt" stroke-linejoin="miter" points="1301.49,116.627 1296.84,116.627"/>
   <polyline stroke="#262626" stroke-width="0.5" fill="none" stroke-linecap="butt" stroke-linejoin="miter" points="836.698,60.5391 841.343,60.5391"/>
   <polyline stroke="#262626" stroke-width="0.5" fill="none" stroke-linecap="butt" stroke-linejoin="miter" points="1301.49,60.5391 1296.84,60.5391"/>
   <g xml:space="preserve" font-weight="normal" font-style="normal" font-family="FreeSans" font-size="10" transform="translate(822.7,288.89) rotate(-0,9,-4)">
    <text y="-0" fill="rgb(38,38,38)" x="0 3 ">-2</text>
   </g>
   <g xml:space="preserve" font-weight="normal" font-style="normal" font-family="FreeSans" font-size="10" transform="translate(822.7,232.802) rotate(-0,9,-4)">
    <text y="-0" fill="rgb(38,38,38)" x="0 3 ">-1</text>
   </g>
   <g xml:space="preserve" font-weight="normal" font-style="normal" font-family="FreeSans" font-size="10" transform="translate(825.7,176.715) rotate(-0,6,-4)">
    <text y="-0" fill="rgb(38,38,38)" x="0 ">0</text>
   </g>
   <g xml:space="preserve" font-weight="normal" font-style="normal" font-family="FreeSans" font-size="10" transform="translate(825.7,120.627) rotate(-0,6,-4)">
    <text y="-0" fill="rgb(38,38,38)" x="0 ">1</text>
   </g>
   <g xml:space="preserve" font-weight="normal" font-style="normal" font-family="FreeSans" font-size="10" transform="translate(825.7,64.5391) rotate(-0,6,-4)">
    <text y="-0" fill="rgb(38,38,38)" x="0 ">2</text>
   </g>
   <polyline stroke="#262626" stroke-width="0.5" stroke-dasharray="16,0" fill="none" stroke-linecap="square" stroke-linejoin="miter" points="836.698,284.89 1301.49,284.89"/>
   <polyline stroke="#262626" stroke-width="0.5" stroke-dasharray="16,0" fill="none" stroke-linecap="square" stroke-linejoin="miter" points="836.698,60.5391 1301.49,60.5391"/>
   <polyline stroke="#262626" stroke-width="0.5" stroke-dasharray="16,0" fill="none" stroke-linecap="square" stroke-linejoin="miter" points="836.698,284.89 836.698,60.5391"/>
   <polyline stroke="#262626" stroke-width="0.5" stroke-dasharray="16,0" fill="none" stroke-linecap="square" stroke-linejoin="miter" points="1301.49,284.89 1301.49,60.5391"/>
   <g xml:space="preserve" font-weight="bold" font-style="normal" font-family="FreeSans" font-size="11" transform="translate(1058.09,50.5391) rotate(-0,11,0)">
    <text y="-3" fill="rgb(0,0,0)" x="0 ">x</text>
    <text y="-1" fill="rgb(0,0,0)" x="6 " font-size="7.7">2</text>
    <text y="-3" fill="rgb(0,0,0)" x="10 14 18 ">(t)</text>
   </g>
   <polyline stroke="#00ff00" stroke-width="0.5" fill="none" stroke-linecap="butt" stroke-linejoin="round" points="836.698,79.235 839.796,85.7995 842.895,104.571 845.993,132.913 849.092,166.845 852.191,201.601 855.289,232.301 858.388,254.631 861.486,265.457 864.585,263.257 867.684,248.341 870.782,222.803 873.881,190.231 876.979,155.198 880.078,122.626 883.177,97.0881 886.275,82.1719 889.374,79.9722 892.472,90.7979 895.571,113.128 898.67,143.828 901.768,178.584 904.867,212.516 907.965,240.858 911.064,259.63 914.163,266.194 917.261,259.63 920.36,240.858 923.458,212.516 926.557,178.584 929.656,143.828 932.754,113.128 935.853,90.7979 938.951,79.9722 942.05,82.1719 945.149,97.0881 948.247,122.626 951.346,155.198 954.444,190.231 957.543,222.803 960.642,248.341 963.74,263.257 966.839,265.457 969.937,254.631 973.036,232.301 976.135,201.601 979.233,166.845 982.332,132.913 985.43,104.571 988.529,85.7995 991.628,79.235 994.726,85.7995 997.825,104.571 1000.92,132.913 1004.02,166.845 1007.12,201.601 1010.22,232.301 1013.32,254.631 1016.42,265.457 1019.51,263.257 1022.61,248.341 1025.71,222.803 1028.81,190.231 1031.91,155.198 1035.01,122.626 1038.11,97.0881 1041.21,82.1719 1044.3,79.9722 1047.4,90.7979 1050.5,113.128 1053.6,143.828 1056.7,178.584 1059.8,212.516 1062.9,240.858 1065.99,259.63 1069.09,266.194 1072.19,259.63 1075.29,240.858 1078.39,212.516 1081.49,178.584 1084.59,143.828 1087.68,113.128 1090.78,90.7979 1093.88,79.9722 1096.98,82.1719 1100.08,97.0881 1103.18,122.626 1106.28,155.198 1109.37,190.231 1112.47,222.803 1115.57,248.341 1118.67,263.257 1121.77,265.457 1124.87,254.631 1127.97,232.301 1131.06,201.601 1134.16,166.845 1137.26,132.913 1140.36,104.571 1143.46,85.7995 1146.56,79.235 1149.66,85.7995 1152.75,104.571 1155.85,132.913 1158.95,166.845 1162.05,201.601 1165.15,232.301 1168.25,254.631 1171.35,265.457 1174.44,263.257 1177.54,248.341 1180.64,222.803 1183.74,190.231 1186.84,155.198 1189.94,122.626 1193.04,97.0881 1196.14,82.1719 1199.23,79.9722 1202.33,90.7979 1205.43,113.128 1208.53,143.828 1211.63,178.584 1214.73,212.516 1217.83,240.858 1220.92,259.63 1224.02,266.194 1227.12,259.63 1230.22,240.858 1233.32,212.516 1236.42,178.584 1239.52,143.828 1242.61,113.128 1245.71,90.7979 1248.81,79.9722 1251.91,82.1719 1255.01,97.0881 1258.11,122.626 1261.21,155.198 1264.3,190.231 1267.4,222.803 1270.5,248.341 1273.6,263.257 1276.7,265.457 1279.8,254.631 1282.9,232.301 1285.99,201.601 1289.09,166.845 1292.19,132.913 1295.29,104.571 1298.39,85.7995 1301.49,79.235 1301.95,80.2198"/>
  </g>
  <clipPath id="cp001438689">
   <polygon points="0,689 1438,689 1438,0 0,0"/>
  </clipPath>
  <g clip-path="url(#cp001438689)">
   <polygon shape-rendering="crispEdges" fill="#ffffff" points="186.954,613.293 651.744,613.293 651.744,388.942 186.954,388.942"/>
   <polyline stroke="#262626" stroke-width="0.5" fill="none" stroke-linecap="butt" stroke-linejoin="miter" points="186.954,613.293 186.954,608.638"/>
   <polyline stroke="#262626" stroke-width="0.5" fill="none" stroke-linecap="butt" stroke-linejoin="miter" points="186.954,388.942 186.954,393.597"/>
   <polyline stroke="#262626" stroke-width="0.5" fill="none" stroke-linecap="butt" stroke-linejoin="miter" points="264.419,613.293 264.419,608.638"/>
   <polyline stroke="#262626" stroke-width="0.5" fill="none" stroke-linecap="butt" stroke-linejoin="miter" points="264.419,388.942 264.419,393.597"/>
   <polyline stroke="#262626" stroke-width="0.5" fill="none" stroke-linecap="butt" stroke-linejoin="miter" points="341.884,613.293 341.884,608.638"/>
   <polyline stroke="#262626" stroke-width="0.5" fill="none" stroke-linecap="butt" stroke-linejoin="miter" points="341.884,388.942 341.884,393.597"/>
   <polyline stroke="#262626" stroke-width="0.5" fill="none" stroke-linecap="butt" stroke-linejoin="miter" points="419.349,613.293 419.349,608.638"/>
   <polyline stroke="#262626" stroke-width="0.5" fill="none" stroke-linecap="butt" stroke-linejoin="miter" points="419.349,388.942 419.349,393.597"/>
   <polyline stroke="#262626" stroke-width="0.5" fill="none" stroke-linecap="butt" stroke-linejoin="miter" points="496.814,613.293 496.814,608.638"/>
   <polyline stroke="#262626" stroke-width="0.5" fill="none" stroke-linecap="butt" stroke-linejoin="miter" points="496.814,388.942 496.814,393.597"/>
   <polyline stroke="#262626" stroke-width="0.5" fill="none" stroke-linecap="butt" stroke-linejoin="miter" points="574.279,613.293 574.279,608.638"/>
   <polyline stroke="#262626" stroke-width="0.5" fill="none" stroke-linecap="butt" stroke-linejoin="miter" points="574.279,388.942 574.279,393.597"/>
   <polyline stroke="#262626" stroke-width="0.5" fill="none" stroke-linecap="butt" stroke-linejoin="miter" points="651.744,613.293 651.744,608.638"/>
   <polyline stroke="#262626" stroke-width="0.5" fill="none" stroke-linecap="butt" stroke-linejoin="miter" points="651.744,388.942 651.744,393.597"/>
   <g xml:space="preserve" font-weight="normal" font-style="normal" font-family="FreeSans" font-size="10" transform="translate(183.954,628.805) rotate(-0,3,-8)">
    <text y="-0" fill="rgb(38,38,38)" x="0 ">0</text>
   </g>
   <g xml:space="preserve" font-weight="normal" font-style="normal" font-family="FreeSans" font-size="10" transform="translate(247.919,628.805) rotate(-0,16.5,-8)">
    <text y="-0" fill="rgb(38,38,38)" x="0 6 9 15 21 27 ">0.0005</text>
   </g>
   <g xml:space="preserve" font-weight="normal" font-style="normal" font-family="FreeSans" font-size="10" transform="translate(328.384,628.805) rotate(-0,13.5,-8)">
    <text y="-0" fill="rgb(38,38,38)" x="0 6 9 15 21 ">0.001</text>
   </g>
   <g xml:space="preserve" font-weight="normal" font-style="normal" font-family="FreeSans" font-size="10" transform="translate(402.849,628.805) rotate(-0,16.5,-8)">
    <text y="-0" fill="rgb(38,38,38)" x="0 6 9 15 21 27 ">0.0015</text>
   </g>
   <g xml:space="preserve" font-weight="normal" font-style="normal" font-family="FreeSans" font-size="10" transform="translate(483.314,628.805) rotate(-0,13.5,-8)">
    <text y="-0" fill="rgb(38,38,38)" x="0 6 9 15 21 ">0.002</text>
   </g>
   <g xml:space="preserve" font-weight="normal" font-style="normal" font-family="FreeSans" font-size="10" transform="translate(557.779,628.805) rotate(-0,16.5,-8)">
    <text y="-0" fill="rgb(38,38,38)" x="0 6 9 15 21 27 ">0.0025</text>
   </g>
   <g xml:space="preserve" font-weight="normal" font-style="normal" font-family="FreeSans" font-size="10" transform="translate(638.244,628.805) rotate(-0,13.5,-8)">
    <text y="-0" fill="rgb(38,38,38)" x="0 6 9 15 21 ">0.003</text>
   </g>
   <polyline stroke="#262626" stroke-width="0.5" fill="none" stroke-linecap="butt" stroke-linejoin="miter" points="186.954,613.293 191.6,613.293"/>
   <polyline stroke="#262626" stroke-width="0.5" fill="none" stroke-linecap="butt" stroke-linejoin="miter" points="651.744,613.293 647.098,613.293"/>
   <polyline stroke="#262626" stroke-width="0.5" fill="none" stroke-linecap="butt" stroke-linejoin="miter" points="186.954,557.205 191.6,557.205"/>
   <polyline stroke="#262626" stroke-width="0.5" fill="none" stroke-linecap="butt" stroke-linejoin="miter" points="651.744,557.205 647.098,557.205"/>
   <polyline stroke="#262626" stroke-width="0.5" fill="none" stroke-linecap="butt" stroke-linejoin="miter" points="186.954,501.118 191.6,501.118"/>
   <polyline stroke="#262626" stroke-width="0.5" fill="none" stroke-linecap="butt" stroke-linejoin="miter" points="651.744,501.118 647.098,501.118"/>
   <polyline stroke="#262626" stroke-width="0.5" fill="none" stroke-linecap="butt" stroke-linejoin="miter" points="186.954,445.03 191.6,445.03"/>
   <polyline stroke="#262626" stroke-width="0.5" fill="none" stroke-linecap="butt" stroke-linejoin="miter" points="651.744,445.03 647.098,445.03"/>
   <polyline stroke="#262626" stroke-width="0.5" fill="none" stroke-linecap="butt" stroke-linejoin="miter" points="186.954,388.942 191.6,388.942"/>
   <polyline stroke="#262626" stroke-width="0.5" fill="none" stroke-linecap="butt" stroke-linejoin="miter" points="651.744,388.942 647.098,388.942"/>
   <g xml:space="preserve" font-weight="normal" font-style="normal" font-family="FreeSans" font-size="10" transform="translate(172.956,617.293) rotate(-0,9,-4)">
    <text y="-0" fill="rgb(38,38,38)" x="0 3 ">-1</text>
   </g>
   <g xml:space="preserve" font-weight="normal" font-style="normal" font-family="FreeSans" font-size="10" transform="translate(163.956,561.205) rotate(-0,18,-4)">
    <text y="-0" fill="rgb(38,38,38)" x="0 3 9 12 ">-0.5</text>
   </g>
   <g xml:space="preserve" font-weight="normal" font-style="normal" font-family="FreeSans" font-size="10" transform="translate(175.956,505.118) rotate(-0,6,-4)">
    <text y="-0" fill="rgb(38,38,38)" x="0 ">0</text>
   </g>
   <g xml:space="preserve" font-weight="normal" font-style="normal" font-family="FreeSans" font-size="10" transform="translate(166.956,449.03) rotate(-0,15,-4)">
    <text y="-0" fill="rgb(38,38,38)" x="0 6 9 ">0.5</text>
   </g>
   <g xml:space="preserve" font-weight="normal" font-style="normal" font-family="FreeSans" font-size="10" transform="translate(175.956,392.942) rotate(-0,6,-4)">
    <text y="-0" fill="rgb(38,38,38)" x="0 ">1</text>
   </g>
   <polyline stroke="#262626" stroke-width="0.5" stroke-dasharray="16,0" fill="none" stroke-linecap="square" stroke-linejoin="miter" points="186.954,613.293 651.744,613.293"/>
   <polyline stroke="#262626" stroke-width="0.5" stroke-dasharray="16,0" fill="none" stroke-linecap="square" stroke-linejoin="miter" points="186.954,388.942 651.744,388.942"/>
   <polyline stroke="#262626" stroke-width="0.5" stroke-dasharray="16,0" fill="none" stroke-linecap="square" stroke-linejoin="miter" points="186.954,613.293 186.954,388.942"/>
   <polyline stroke="#262626" stroke-width="0.5" stroke-dasharray="16,0" fill="none" stroke-linecap="square" stroke-linejoin="miter" points="651.744,613.293 651.744,388.942"/>
   <g xml:space="preserve" font-weight="bold" font-style="normal" font-family="FreeSans" font-size="11" transform="translate(408.349,378.942) rotate(-0,11,0)">
    <text y="-3" fill="rgb(0,0,0)" x="0 ">x</text>
    <text y="-1" fill="rgb(0,0,0)" x="6 " font-size="7.7">3</text>
    <text y="-3" fill="rgb(0,0,0)" x="10 14 18 ">(t)</text>
   </g>
   <polyline stroke="#0000ff" stroke-width="0.5" fill="none" stroke-linecap="butt" stroke-linejoin="round" points="186.954,388.942 190.053,410.366 193.151,466.453 196.25,535.782 199.348,591.869 202.447,613.293 205.546,591.869 208.644,535.782 211.743,466.453 214.841,410.366 217.94,388.942 221.039,410.366 224.137,466.453 227.236,535.782 230.334,591.869 233.433,613.293 236.532,591.869 239.63,535.782 242.729,466.453 245.827,410.366 248.926,388.942 252.025,410.366 255.123,466.453 258.222,535.782 261.32,591.869 264.419,613.293 267.518,591.869 270.616,535.782 273.715,466.453 276.813,410.366 279.912,388.942 283.011,410.366 286.109,466.453 289.208,535.782 292.306,591.869 295.405,613.293 298.504,591.869 301.602,535.782 304.701,466.453 307.799,410.366 310.898,388.942 313.997,410.366 317.095,466.453 320.194,535.782 323.292,591.869 326.391,613.293 329.49,591.869 332.588,535.782 335.687,466.453 338.785,410.366 341.884,388.942 344.983,410.366 348.081,466.453 351.18,535.782 354.278,591.869 357.377,613.293 360.476,591.869 363.574,535.782 366.673,466.453 369.771,410.366 372.87,388.942 375.969,410.366 379.067,466.453 382.166,535.782 385.264,591.869 388.363,613.293 391.462,591.869 394.56,535.782 397.659,466.453 400.757,410.366 403.856,388.942 406.955,410.366 410.053,466.453 413.152,535.782 416.25,591.869 419.349,613.293 422.448,591.869 425.546,535.782 428.645,466.453 431.743,410.366 434.842,388.942 437.941,410.366 441.039,466.453 444.138,535.782 447.236,591.869 450.335,613.293 453.434,591.869 456.532,535.782 459.631,466.453 462.729,410.366 465.828,388.942 468.927,410.366 472.025,466.453 475.124,535.782 478.222,591.869 481.321,613.293 484.42,591.869 487.518,535.782 490.617,466.453 493.715,410.366 496.814,388.942 499.913,410.366 503.011,466.453 506.11,535.782 509.208,591.869 512.307,613.293 515.406,591.869 518.504,535.782 521.603,466.453 524.701,410.366 527.8,388.942 530.899,410.366 533.997,466.453 537.096,535.782 540.194,591.869 543.293,613.293 546.392,591.869 549.49,535.782 552.589,466.453 555.687,410.366 558.786,388.942 561.885,410.366 564.983,466.453 568.082,535.782 571.18,591.869 574.279,613.293 577.378,591.869 580.476,535.782 583.575,466.453 586.673,410.366 589.772,388.942 592.871,410.366 595.969,466.453 599.068,535.782 602.166,591.869 605.265,613.293 608.364,591.869 611.462,535.782 614.561,466.453 617.659,410.366 620.758,388.942 623.857,410.366 626.955,466.453 630.054,535.782 633.152,591.869 636.251,613.293 639.35,591.869 642.448,535.782 645.547,466.453 648.645,410.366 651.744,388.942 652.209,392.156"/>
  </g>
  <clipPath id="cp001438689">
   <polygon points="0,689 1438,689 1438,0 0,0"/>
  </clipPath>
  <g clip-path="url(#cp001438689)">
   <polygon shape-rendering="crispEdges" fill="#ffffff" points="836.698,613.293 1301.49,613.293 1301.49,388.942 836.698,388.942"/>
   <polyline stroke="#262626" stroke-width="0.5" fill="none" stroke-linecap="butt" stroke-linejoin="miter" points="836.698,613.293 836.698,608.638"/>
   <polyline stroke="#262626" stroke-width="0.5" fill="none" stroke-linecap="butt" stroke-linejoin="miter" points="836.698,388.942 836.698,393.597"/>
   <polyline stroke="#262626" stroke-width="0.5" fill="none" stroke-linecap="butt" stroke-linejoin="miter" points="914.163,613.293 914.163,608.638"/>
   <polyline stroke="#262626" stroke-width="0.5" fill="none" stroke-linecap="butt" stroke-linejoin="miter" points="914.163,388.942 914.163,393.597"/>
   <polyline stroke="#262626" stroke-width="0.5" fill="none" stroke-linecap="butt" stroke-linejoin="miter" points="991.628,613.293 991.628,608.638"/>
   <polyline stroke="#262626" stroke-width="0.5" fill="none" stroke-linecap="butt" stroke-linejoin="miter" points="991.628,388.942 991.628,393.597"/>
   <polyline stroke="#262626" stroke-width="0.5" fill="none" stroke-linecap="butt" stroke-linejoin="miter" points="1069.09,613.293 1069.09,608.638"/>
   <polyline stroke="#262626" stroke-width="0.5" fill="none" stroke-linecap="butt" stroke-linejoin="miter" points="1069.09,388.942 1069.09,393.597"/>
   <polyline stroke="#262626" stroke-width="0.5" fill="none" stroke-linecap="butt" stroke-linejoin="miter" points="1146.56,613.293 1146.56,608.638"/>
   <polyline stroke="#262626" stroke-width="0.5" fill="none" stroke-linecap="butt" stroke-linejoin="miter" points="1146.56,388.942 1146.56,393.597"/>
   <polyline stroke="#262626" stroke-width="0.5" fill="none" stroke-linecap="butt" stroke-linejoin="miter" points="1224.02,613.293 1224.02,608.638"/>
   <polyline stroke="#262626" stroke-width="0.5" fill="none" stroke-linecap="butt" stroke-linejoin="miter" points="1224.02,388.942 1224.02,393.597"/>
   <polyline stroke="#262626" stroke-width="0.5" fill="none" stroke-linecap="butt" stroke-linejoin="miter" points="1301.49,613.293 1301.49,608.638"/>
   <polyline stroke="#262626" stroke-width="0.5" fill="none" stroke-linecap="butt" stroke-linejoin="miter" points="1301.49,388.942 1301.49,393.597"/>
   <g xml:space="preserve" font-weight="normal" font-style="normal" font-family="FreeSans" font-size="10" transform="translate(833.698,628.805) rotate(-0,3,-8)">
    <text y="-0" fill="rgb(38,38,38)" x="0 ">0</text>
   </g>
   <g xml:space="preserve" font-weight="normal" font-style="normal" font-family="FreeSans" font-size="10" transform="translate(897.663,628.805) rotate(-0,16.5,-8)">
    <text y="-0" fill="rgb(38,38,38)" x="0 6 9 15 21 27 ">0.0005</text>
   </g>
   <g xml:space="preserve" font-weight="normal" font-style="normal" font-family="FreeSans" font-size="10" transform="translate(978.128,628.805) rotate(-0,13.5,-8)">
    <text y="-0" fill="rgb(38,38,38)" x="0 6 9 15 21 ">0.001</text>
   </g>
   <g xml:space="preserve" font-weight="normal" font-style="normal" font-family="FreeSans" font-size="10" transform="translate(1052.59,628.805) rotate(-0,16.5,-8)">
    <text y="-0" fill="rgb(38,38,38)" x="0 6 9 15 21 27 ">0.0015</text>
   </g>
   <g xml:space="preserve" font-weight="normal" font-style="normal" font-family="FreeSans" font-size="10" transform="translate(1133.06,628.805) rotate(-0,13.5,-8)">
    <text y="-0" fill="rgb(38,38,38)" x="0 6 9 15 21 ">0.002</text>
   </g>
   <g xml:space="preserve" font-weight="normal" font-style="normal" font-family="FreeSans" font-size="10" transform="translate(1207.52,628.805) rotate(-0,16.5,-8)">
    <text y="-0" fill="rgb(38,38,38)" x="0 6 9 15 21 27 ">0.0025</text>
   </g>
   <g xml:space="preserve" font-weight="normal" font-style="normal" font-family="FreeSans" font-size="10" transform="translate(1287.99,628.805) rotate(-0,13.5,-8)">
    <text y="-0" fill="rgb(38,38,38)" x="0 6 9 15 21 ">0.003</text>
   </g>
   <polyline stroke="#262626" stroke-width="0.5" fill="none" stroke-linecap="butt" stroke-linejoin="miter" points="836.698,613.293 841.343,613.293"/>
   <polyline stroke="#262626" stroke-width="0.5" fill="none" stroke-linecap="butt" stroke-linejoin="miter" points="1301.49,613.293 1296.84,613.293"/>
   <polyline stroke="#262626" stroke-width="0.5" fill="none" stroke-linecap="butt" stroke-linejoin="miter" points="836.698,557.205 841.343,557.205"/>
   <polyline stroke="#262626" stroke-width="0.5" fill="none" stroke-linecap="butt" stroke-linejoin="miter" points="1301.49,557.205 1296.84,557.205"/>
   <polyline stroke="#262626" stroke-width="0.5" fill="none" stroke-linecap="butt" stroke-linejoin="miter" points="836.698,501.118 841.343,501.118"/>
   <polyline stroke="#262626" stroke-width="0.5" fill="none" stroke-linecap="butt" stroke-linejoin="miter" points="1301.49,501.118 1296.84,501.118"/>
   <polyline stroke="#262626" stroke-width="0.5" fill="none" stroke-linecap="butt" stroke-linejoin="miter" points="836.698,445.03 841.343,445.03"/>
   <polyline stroke="#262626" stroke-width="0.5" fill="none" stroke-linecap="butt" stroke-linejoin="miter" points="1301.49,445.03 1296.84,445.03"/>
   <polyline stroke="#262626" stroke-width="0.5" fill="none" stroke-linecap="butt" stroke-linejoin="miter" points="836.698,388.942 841.343,388.942"/>
   <polyline stroke="#262626" stroke-width="0.5" fill="none" stroke-linecap="butt" stroke-linejoin="miter" points="1301.49,388.942 1296.84,388.942"/>
   <g xml:space="preserve" font-weight="normal" font-style="normal" font-family="FreeSans" font-size="10" transform="translate(816.7,617.293) rotate(-0,15,-4)">
    <text y="-0" fill="rgb(38,38,38)" x="0 3 9 ">-10</text>
   </g>
   <g xml:space="preserve" font-weight="normal" font-style="normal" font-family="FreeSans" font-size="10" transform="translate(822.7,561.205) rotate(-0,9,-4)">
    <text y="-0" fill="rgb(38,38,38)" x="0 3 ">-5</text>
   </g>
   <g xml:space="preserve" font-weight="normal" font-style="normal" font-family="FreeSans" font-size="10" transform="translate(825.7,505.118) rotate(-0,6,-4)">
    <text y="-0" fill="rgb(38,38,38)" x="0 ">0</text>
   </g>
   <g xml:space="preserve" font-weight="normal" font-style="normal" font-family="FreeSans" font-size="10" transform="translate(825.7,449.03) rotate(-0,6,-4)">
    <text y="-0" fill="rgb(38,38,38)" x="0 ">5</text>
   </g>
   <g xml:space="preserve" font-weight="normal" font-style="normal" font-family="FreeSans" font-size="10" transform="translate(819.7,392.942) rotate(-0,12,-4)">
    <text y="-0" fill="rgb(38,38,38)" x="0 6 ">10</text>
   </g>
   <polyline stroke="#262626" stroke-width="0.5" stroke-dasharray="16,0" fill="none" stroke-linecap="square" stroke-linejoin="miter" points="836.698,613.293 1301.49,613.293"/>
   <polyline stroke="#262626" stroke-width="0.5" stroke-dasharray="16,0" fill="none" stroke-linecap="square" stroke-linejoin="miter" points="836.698,388.942 1301.49,388.942"/>
   <polyline stroke="#262626" stroke-width="0.5" stroke-dasharray="16,0" fill="none" stroke-linecap="square" stroke-linejoin="miter" points="836.698,613.293 836.698,388.942"/>
   <polyline stroke="#262626" stroke-width="0.5" stroke-dasharray="16,0" fill="none" stroke-linecap="square" stroke-linejoin="miter" points="1301.49,613.293 1301.49,388.942"/>
   <g xml:space="preserve" font-weight="bold" font-style="normal" font-family="FreeSans" font-size="11" transform="translate(1060.09,378.942) rotate(-0,9,0)">
    <text y="-3" fill="rgb(0,0,0)" x="0 6 10 14 ">s(t)</text>
   </g>
   <polyline stroke="#000000" stroke-width="0.5" fill="none" stroke-linecap="butt" stroke-linejoin="round" points="836.698,415.116 839.796,419.014 842.895,429.697 845.993,444.475 849.092,459.869 852.191,472.737 855.289,481.224 858.388,485.216 861.486,486.146 864.585,486.27 867.684,487.693 870.782,491.55 873.881,497.633 876.979,504.603 880.078,510.685 883.177,514.542 886.275,515.965 889.374,516.089 892.472,517.02 895.571,521.011 898.67,529.499 901.768,542.366 904.867,557.761 907.965,572.538 911.064,583.221 914.163,587.119 917.261,583.221 920.36,572.538 923.458,557.761 926.557,542.366 929.656,529.499 932.754,521.011 935.853,517.02 938.951,516.089 942.05,515.965 945.149,514.542 948.247,510.685 951.346,504.603 954.444,497.633 957.543,491.55 960.642,487.693 963.74,486.27 966.839,486.146 969.937,485.216 973.036,481.224 976.135,472.737 979.233,459.869 982.332,444.475 985.43,429.697 988.529,419.014 991.628,415.116 994.726,419.014 997.825,429.697 1000.92,444.475 1004.02,459.869 1007.12,472.737 1010.22,481.224 1013.32,485.216 1016.42,486.146 1019.51,486.27 1022.61,487.693 1025.71,491.55 1028.81,497.633 1031.91,504.603 1035.01,510.685 1038.11,514.542 1041.21,515.965 1044.3,516.089 1047.4,517.02 1050.5,521.011 1053.6,529.499 1056.7,542.366 1059.8,557.761 1062.9,572.538 1065.99,583.221 1069.09,587.119 1072.19,583.221 1075.29,572.538 1078.39,557.761 1081.49,542.366 1084.59,529.499 1087.68,521.011 1090.78,517.02 1093.88,516.089 1096.98,515.965 1100.08,514.542 1103.18,510.685 1106.28,504.603 1109.37,497.633 1112.47,491.55 1115.57,487.693 1118.67,486.27 1121.77,486.146 1124.87,485.216 1127.97,481.224 1131.06,472.737 1134.16,459.869 1137.26,444.475 1140.36,429.697 1143.46,419.014 1146.56,415.116 1149.66,419.014 1152.75,429.697 1155.85,444.475 1158.95,459.869 1162.05,472.737 1165.15,481.224 1168.25,485.216 1171.35,486.146 1174.44,486.27 1177.54,487.693 1180.64,491.55 1183.74,497.633 1186.84,504.603 1189.94,510.685 1193.04,514.542 1196.14,515.965 1199.23,516.089 1202.33,517.02 1205.43,521.011 1208.53,529.499 1211.63,542.366 1214.73,557.761 1217.83,572.538 1220.92,583.221 1224.02,587.119 1227.12,583.221 1230.22,572.538 1233.32,557.761 1236.42,542.366 1239.52,529.499 1242.61,521.011 1245.71,517.02 1248.81,516.089 1251.91,515.965 1255.01,514.542 1258.11,510.685 1261.21,504.603 1264.3,497.633 1267.4,491.55 1270.5,487.693 1273.6,486.27 1276.7,486.146 1279.8,485.216 1282.9,481.224 1285.99,472.737 1289.09,459.869 1292.19,444.475 1295.29,429.697 1298.39,419.014 1301.49,415.116 1301.95,415.701"/>
  </g>
 </g>
</svg>
