<?xml version='1.0' encoding='UTF-8' standalone='no'?>
<svg width="419pt" xmlns="http://www.w3.org/2000/svg" height="314pt" xmlns:xlink="http://www.w3.org/1999/xlink" viewBox="0 0 419 314">
 <title>Figure 3</title>
 <desc>
Creator: GL2PS 1.4.2, (C) 1999-2020 C. Geuzaine
For: Octave
CreationDate: Sat Mar  9 09:53:51 2024
</desc>
 <defs/>
 <polygon fill="#ffffff" points="0,0 419,0 419,314 0,314"/>
 <g>
  <polygon fill="#ffffff" points="0,314 419,314 419,0 0,0" shape-rendering="crispEdges"/>
  <clipPath id="cp00419314">
   <polygon points="0,314 419,314 419,0 0,0"/>
  </clipPath>
  <g clip-path="url(#cp00419314)">
   <polygon fill="#ffffff" points="54.5283,279.982 379.601,279.982 379.601,23.594 54.5283,23.594" shape-rendering="crispEdges"/>
   <polyline stroke="#262626" fill="none" stroke-linecap="butt" points="54.5283,279.982 54.5283,276.726" stroke-width="0.5" stroke-linejoin="miter"/>
   <polyline stroke="#262626" fill="none" stroke-linecap="butt" points="54.5283,23.594 54.5283,26.8496" stroke-width="0.5" stroke-linejoin="miter"/>
   <polyline stroke="#262626" fill="none" stroke-linecap="butt" points="119.543,279.982 119.543,276.726" stroke-width="0.5" stroke-linejoin="miter"/>
   <polyline stroke="#262626" fill="none" stroke-linecap="butt" points="119.543,23.594 119.543,26.8496" stroke-width="0.5" stroke-linejoin="miter"/>
   <polyline stroke="#262626" fill="none" stroke-linecap="butt" points="184.557,279.982 184.557,276.726" stroke-width="0.5" stroke-linejoin="miter"/>
   <polyline stroke="#262626" fill="none" stroke-linecap="butt" points="184.557,23.594 184.557,26.8496" stroke-width="0.5" stroke-linejoin="miter"/>
   <polyline stroke="#262626" fill="none" stroke-linecap="butt" points="249.572,279.982 249.572,276.726" stroke-width="0.5" stroke-linejoin="miter"/>
   <polyline stroke="#262626" fill="none" stroke-linecap="butt" points="249.572,23.594 249.572,26.8496" stroke-width="0.5" stroke-linejoin="miter"/>
   <polyline stroke="#262626" fill="none" stroke-linecap="butt" points="314.586,279.982 314.586,276.726" stroke-width="0.5" stroke-linejoin="miter"/>
   <polyline stroke="#262626" fill="none" stroke-linecap="butt" points="314.586,23.594 314.586,26.8496" stroke-width="0.5" stroke-linejoin="miter"/>
   <polyline stroke="#262626" fill="none" stroke-linecap="butt" points="379.601,279.982 379.601,276.726" stroke-width="0.5" stroke-linejoin="miter"/>
   <polyline stroke="#262626" fill="none" stroke-linecap="butt" points="379.601,23.594 379.601,26.8496" stroke-width="0.5" stroke-linejoin="miter"/>
   <g transform="translate(51.5283,295.493) rotate(-0,3,-8)" font-family="FreeSans" font-weight="normal" xml:space="preserve" font-style="normal" font-size="10">
    <text y="-0" x="0 " fill="rgb(38,38,38)">0</text>
   </g>
   <g transform="translate(112.043,295.493) rotate(-0,7.5,-8)" font-family="FreeSans" font-weight="normal" xml:space="preserve" font-style="normal" font-size="10">
    <text y="-0" x="0 6 9 " fill="rgb(38,38,38)">0.1</text>
   </g>
   <g transform="translate(177.057,295.493) rotate(-0,7.5,-8)" font-family="FreeSans" font-weight="normal" xml:space="preserve" font-style="normal" font-size="10">
    <text y="-0" x="0 6 9 " fill="rgb(38,38,38)">0.2</text>
   </g>
   <g transform="translate(242.072,295.493) rotate(-0,7.5,-8)" font-family="FreeSans" font-weight="normal" xml:space="preserve" font-style="normal" font-size="10">
    <text y="-0" x="0 6 9 " fill="rgb(38,38,38)">0.3</text>
   </g>
   <g transform="translate(307.086,295.493) rotate(-0,7.5,-8)" font-family="FreeSans" font-weight="normal" xml:space="preserve" font-style="normal" font-size="10">
    <text y="-0" x="0 6 9 " fill="rgb(38,38,38)">0.4</text>
   </g>
   <g transform="translate(372.101,295.493) rotate(-0,7.5,-8)" font-family="FreeSans" font-weight="normal" xml:space="preserve" font-style="normal" font-size="10">
    <text y="-0" x="0 6 9 " fill="rgb(38,38,38)">0.5</text>
   </g>
   <polyline stroke="#262626" fill="none" stroke-linecap="butt" points="54.5283,279.982 57.7797,279.982" stroke-width="0.5" stroke-linejoin="miter"/>
   <polyline stroke="#262626" fill="none" stroke-linecap="butt" points="379.601,279.982 376.349,279.982" stroke-width="0.5" stroke-linejoin="miter"/>
   <polyline stroke="#262626" fill="none" stroke-linecap="butt" points="54.5283,243.355 57.7797,243.355" stroke-width="0.5" stroke-linejoin="miter"/>
   <polyline stroke="#262626" fill="none" stroke-linecap="butt" points="379.601,243.355 376.349,243.355" stroke-width="0.5" stroke-linejoin="miter"/>
   <polyline stroke="#262626" fill="none" stroke-linecap="butt" points="54.5283,206.728 57.7797,206.728" stroke-width="0.5" stroke-linejoin="miter"/>
   <polyline stroke="#262626" fill="none" stroke-linecap="butt" points="379.601,206.728 376.349,206.728" stroke-width="0.5" stroke-linejoin="miter"/>
   <polyline stroke="#262626" fill="none" stroke-linecap="butt" points="54.5283,170.101 57.7797,170.101" stroke-width="0.5" stroke-linejoin="miter"/>
   <polyline stroke="#262626" fill="none" stroke-linecap="butt" points="379.601,170.101 376.349,170.101" stroke-width="0.5" stroke-linejoin="miter"/>
   <polyline stroke="#262626" fill="none" stroke-linecap="butt" points="54.5283,133.474 57.7797,133.474" stroke-width="0.5" stroke-linejoin="miter"/>
   <polyline stroke="#262626" fill="none" stroke-linecap="butt" points="379.601,133.474 376.349,133.474" stroke-width="0.5" stroke-linejoin="miter"/>
   <polyline stroke="#262626" fill="none" stroke-linecap="butt" points="54.5283,96.8476 57.7797,96.8476" stroke-width="0.5" stroke-linejoin="miter"/>
   <polyline stroke="#262626" fill="none" stroke-linecap="butt" points="379.601,96.8476 376.349,96.8476" stroke-width="0.5" stroke-linejoin="miter"/>
   <polyline stroke="#262626" fill="none" stroke-linecap="butt" points="54.5283,60.2208 57.7797,60.2208" stroke-width="0.5" stroke-linejoin="miter"/>
   <polyline stroke="#262626" fill="none" stroke-linecap="butt" points="379.601,60.2208 376.349,60.2208" stroke-width="0.5" stroke-linejoin="miter"/>
   <polyline stroke="#262626" fill="none" stroke-linecap="butt" points="54.5283,23.594 57.7797,23.594" stroke-width="0.5" stroke-linejoin="miter"/>
   <polyline stroke="#262626" fill="none" stroke-linecap="butt" points="379.601,23.594 376.349,23.594" stroke-width="0.5" stroke-linejoin="miter"/>
   <g transform="translate(43.5271,283.982) rotate(-0,6,-4)" font-family="FreeSans" font-weight="normal" xml:space="preserve" font-style="normal" font-size="10">
    <text y="-0" x="0 " fill="rgb(38,38,38)">0</text>
   </g>
   <g transform="translate(25.5271,247.355) rotate(-0,24,-4)" font-family="FreeSans" font-weight="normal" xml:space="preserve" font-style="normal" font-size="10">
    <text y="-0" x="0 6 12 18 " fill="rgb(38,38,38)">2000</text>
   </g>
   <g transform="translate(25.5271,210.728) rotate(-0,24,-4)" font-family="FreeSans" font-weight="normal" xml:space="preserve" font-style="normal" font-size="10">
    <text y="-0" x="0 6 12 18 " fill="rgb(38,38,38)">4000</text>
   </g>
   <g transform="translate(25.5271,174.101) rotate(-0,24,-4)" font-family="FreeSans" font-weight="normal" xml:space="preserve" font-style="normal" font-size="10">
    <text y="-0" x="0 6 12 18 " fill="rgb(38,38,38)">6000</text>
   </g>
   <g transform="translate(25.5271,137.474) rotate(-0,24,-4)" font-family="FreeSans" font-weight="normal" xml:space="preserve" font-style="normal" font-size="10">
    <text y="-0" x="0 6 12 18 " fill="rgb(38,38,38)">8000</text>
   </g>
   <g transform="translate(19.5271,100.848) rotate(-0,30,-4)" font-family="FreeSans" font-weight="normal" xml:space="preserve" font-style="normal" font-size="10">
    <text y="-0" x="0 6 12 18 24 " fill="rgb(38,38,38)">10000</text>
   </g>
   <g transform="translate(19.5271,64.2208) rotate(-0,30,-4)" font-family="FreeSans" font-weight="normal" xml:space="preserve" font-style="normal" font-size="10">
    <text y="-0" x="0 6 12 18 24 " fill="rgb(38,38,38)">12000</text>
   </g>
   <g transform="translate(19.5271,27.594) rotate(-0,30,-4)" font-family="FreeSans" font-weight="normal" xml:space="preserve" font-style="normal" font-size="10">
    <text y="-0" x="0 6 12 18 24 " fill="rgb(38,38,38)">14000</text>
   </g>
   <polyline stroke-dasharray="16,0" stroke="#262626" fill="none" stroke-linecap="square" points="54.5283,279.982 379.601,279.982" stroke-width="0.5" stroke-linejoin="miter"/>
   <polyline stroke-dasharray="16,0" stroke="#262626" fill="none" stroke-linecap="square" points="54.5283,23.594 379.601,23.594" stroke-width="0.5" stroke-linejoin="miter"/>
   <polyline stroke-dasharray="16,0" stroke="#262626" fill="none" stroke-linecap="square" points="54.5283,279.982 54.5283,23.594" stroke-width="0.5" stroke-linejoin="miter"/>
   <polyline stroke-dasharray="16,0" stroke="#262626" fill="none" stroke-linecap="square" points="379.601,279.982 379.601,23.594" stroke-width="0.5" stroke-linejoin="miter"/>
   <g transform="translate(-8.47286,151.788) rotate(-90,23,0)" font-family="FreeSans" font-weight="normal" xml:space="preserve" font-style="normal" font-size="11">
    <text y="-3" x="0 6 15 21 23 25 28 34 40 " fill="rgb(38,38,38)">amplitude</text>
   </g>
   <g transform="translate(168.064,13.594) rotate(-0,49,0)" font-family="FreeSans" font-weight="bold" xml:space="preserve" font-style="normal" font-size="11">
    <text y="-3" x="0 7 14 23 29 33 36 42 49 55 61 65 69 76 86 89 95 " fill="rgb(0,0,0)">power spectrum x </text>
   </g>
   <polyline stroke="#0071bc" fill="none" stroke-linecap="butt" points="54.5283,279.979 55.1632,279.976 55.7981,279.976 56.433,279.977 57.0679,279.98 57.7028,279.882 58.3377,200.503 58.9726,43.9958 59.6075,258.06 60.2424,279.972 60.8773,279.978 61.5122,279.977 62.1471,279.977 62.782,279.977 63.417,279.978 64.0519,279.978 64.6868,279.978 65.3217,279.979 65.9566,279.98 66.5915,279.568 67.2264,260.998 67.8613,262.202 68.4962,279.674 69.1311,279.98 69.766,279.979 70.4009,279.979 71.0358,279.979 71.6707,279.979 72.3056,279.979 72.9406,279.98 73.5755,279.98 74.2104,279.98 74.8453,279.978 75.4802,268.304 76.1151,173.034 76.75,248.623 77.3849,279.96 78.0198,279.981 78.6547,279.98 79.2896,279.98 79.9245,279.98 80.5594,279.981 81.1943,279.981 81.8293,279.981 82.4642,279.981 83.0991,279.981 83.734,279.981 84.3689,279.981 85.0038,279.981 85.6387,279.981 86.2736,279.981 86.9085,279.981 87.5434,279.981 88.1783,279.981 88.8132,279.981 89.4481,279.981 90.083,279.981 90.7179,279.981 91.3529,279.981 91.9878,279.981 92.6227,279.981 93.2576,279.981 93.8925,279.981 94.5274,279.981 95.1623,279.981 95.7972,279.981 96.4321,279.981 97.067,279.981 97.7019,279.981 98.3368,279.981 98.9717,279.981 99.6066,279.981 100.242,279.981 100.876,279.981 101.511,279.982 102.146,279.982 102.781,279.982 103.416,279.982 104.051,279.982 104.686,279.982 105.321,279.982 105.956,279.982 106.591,279.982 107.226,279.982 107.86,279.982 108.495,279.982 109.13,279.982 109.765,279.982 110.4,279.982 111.035,279.982 111.67,279.982 112.305,279.982 112.94,279.982 113.575,279.982 114.21,279.982 114.844,279.982 115.479,279.982 116.114,279.982 116.749,279.982 117.384,279.982 118.019,279.982 118.654,279.982 119.289,279.982 119.924,279.982 120.559,279.982 121.193,279.982 121.828,279.982 122.463,279.982 123.098,279.982 123.733,279.982 124.368,279.982 125.003,279.982 125.638,279.982 126.273,279.982 126.908,279.982 127.543,279.982 128.177,279.982 128.812,279.982 129.447,279.982 130.082,279.982 130.717,279.982 131.352,279.982 131.987,279.982 132.622,279.982 133.257,279.982 133.892,279.982 134.527,279.982 135.161,279.982 135.796,279.982 136.431,279.982 137.066,279.982 137.701,279.982 138.336,279.982 138.971,279.982 139.606,279.982 140.241,279.982 140.876,279.982 141.51,279.982 142.145,279.982 142.78,279.982 143.415,279.982 144.05,279.982 144.685,279.982 145.32,279.982 145.955,279.982 146.59,279.982 147.225,279.982 147.86,279.982 148.494,279.982 149.129,279.982 149.764,279.982 150.399,279.982 151.034,279.982 151.669,279.982 152.304,279.982 152.939,279.982 153.574,279.982 154.209,279.982 154.844,279.982 155.478,279.982 156.113,279.982 156.748,279.982 157.383,279.982 158.018,279.982 158.653,279.982 159.288,279.982 159.923,279.982 160.558,279.982 161.193,279.982 161.828,279.982 162.462,279.982 163.097,279.982 163.732,279.982 164.367,279.982 165.002,279.982 165.637,279.982 166.272,279.982 166.907,279.982 167.542,279.982 168.177,279.982 168.811,279.982 169.446,279.982 170.081,279.982 170.716,279.982 171.351,279.982 171.986,279.982 172.621,279.982 173.256,279.982 173.891,279.982 174.526,279.982 175.161,279.982 175.795,279.982 176.43,279.982 177.065,279.982 177.7,279.982 178.335,279.982 178.97,279.982 179.605,279.982 180.24,279.982 180.875,279.982 181.51,279.982 182.145,279.982 182.779,279.982 183.414,279.982 184.049,279.982 184.684,279.982 185.319,279.982 185.954,279.982 186.589,279.982 187.224,279.982 187.859,279.982 188.494,279.982 189.128,279.982 189.763,279.982 190.398,279.982 191.033,279.982 191.668,279.982 192.303,279.982 192.938,279.982 193.573,279.982 194.208,279.982 194.843,279.982 195.478,279.982 196.112,279.982 196.747,279.982 197.382,279.982 198.017,279.982 198.652,279.982 199.287,279.982 199.922,279.982 200.557,279.982 201.192,279.982 201.827,279.982 202.462,279.982 203.096,279.982 203.731,279.982 204.366,279.982 205.001,279.982 205.636,279.982 206.271,279.982 206.906,279.982 207.541,279.982 208.176,279.982 208.811,279.982 209.446,279.982 210.08,279.982 210.715,279.982 211.35,279.982 211.985,279.982 212.62,279.982 213.255,279.982 213.89,279.982 214.525,279.982 215.16,279.982 215.795,279.982 216.429,279.982 217.064,279.982 217.699,279.982 218.334,279.982 218.969,279.982 219.604,279.982 220.239,279.982 220.874,279.982 221.509,279.982 222.144,279.982 222.779,279.982 223.413,279.982 224.048,279.982 224.683,279.982 225.318,279.982 225.953,279.982 226.588,279.982 227.223,279.982 227.858,279.982 228.493,279.982 229.128,279.982 229.763,279.982 230.397,279.982 231.032,279.982 231.667,279.982 232.302,279.982 232.937,279.982 233.572,279.982 234.207,279.982 234.842,279.982 235.477,279.982 236.112,279.982 236.747,279.982 237.381,279.982 238.016,279.982 238.651,279.982 239.286,279.982 239.921,279.982 240.556,279.982 241.191,279.982 241.826,279.982 242.461,279.982 243.096,279.982 243.73,279.982 244.365,279.982 245,279.982 245.635,279.982 246.27,279.982 246.905,279.982 247.54,279.982 248.175,279.982 248.81,279.982 249.445,279.982 250.08,279.982 250.714,279.982 251.349,279.982 251.984,279.982 252.619,279.982 253.254,279.982 253.889,279.982 254.524,279.982 255.159,279.982 255.794,279.982 256.429,279.982 257.064,279.982 257.698,279.982 258.333,279.982 258.968,279.982 259.603,279.982 260.238,279.982 260.873,279.982 261.508,279.982 262.143,279.982 262.778,279.982 263.413,279.982 264.048,279.982 264.682,279.982 265.317,279.982 265.952,279.982 266.587,279.982 267.222,279.982 267.857,279.982 268.492,279.982 269.127,279.982 269.762,279.982 270.397,279.982 271.031,279.982 271.666,279.982 272.301,279.982 272.936,279.982 273.571,279.982 274.206,279.982 274.841,279.982 275.476,279.982 276.111,279.982 276.746,279.982 277.381,279.982 278.015,279.982 278.65,279.982 279.285,279.982 279.92,279.982 280.555,279.982 281.19,279.982 281.825,279.982 282.46,279.982 283.095,279.982 283.73,279.982 284.365,279.982 284.999,279.982 285.634,279.982 286.269,279.982 286.904,279.982 287.539,279.982 288.174,279.982 288.809,279.982 289.444,279.982 290.079,279.982 290.714,279.982 291.349,279.982 291.983,279.982 292.618,279.982 293.253,279.982 293.888,279.982 294.523,279.982 295.158,279.982 295.793,279.982 296.428,279.982 297.063,279.982 297.698,279.982 298.332,279.982 298.967,279.982 299.602,279.982 300.237,279.982 300.872,279.982 301.507,279.982 302.142,279.982 302.777,279.982 303.412,279.982 304.047,279.982 304.682,279.982 305.316,279.982 305.951,279.982 306.586,279.982 307.221,279.982 307.856,279.982 308.491,279.982 309.126,279.982 309.761,279.982 310.396,279.982 311.031,279.982 311.666,279.982 312.3,279.982 312.935,279.982 313.57,279.982 314.205,279.982 314.84,279.982 315.475,279.982 316.11,279.982 316.745,279.982 317.38,279.982 318.015,279.982 318.65,279.982 319.284,279.982 319.919,279.982 320.554,279.982 321.189,279.982 321.824,279.982 322.459,279.982 323.094,279.982 323.729,279.982 324.364,279.982 324.999,279.982 325.633,279.982 326.268,279.982 326.903,279.982 327.538,279.982 328.173,279.982 328.808,279.982 329.443,279.982 330.078,279.982 330.713,279.982 331.348,279.982 331.983,279.982 332.617,279.982 333.252,279.982 333.887,279.982 334.522,279.982 335.157,279.982 335.792,279.982 336.427,279.982 337.062,279.982 337.697,279.982 338.332,279.982 338.967,279.982 339.601,279.982 340.236,279.982 340.871,279.982 341.506,279.982 342.141,279.982 342.776,279.982 343.411,279.982 344.046,279.982 344.681,279.982 345.316,279.982 345.951,279.982 346.585,279.982 347.22,279.982 347.855,279.982 348.49,279.982 349.125,279.982 349.76,279.982 350.395,279.982 351.03,279.982 351.665,279.982 352.3,279.982 352.934,279.982 353.569,279.982 354.204,279.982 354.839,279.982 355.474,279.982 356.109,279.982 356.744,279.982 357.379,279.982 358.014,279.982 358.649,279.982 359.284,279.982 359.918,279.982 360.553,279.982 361.188,279.982 361.823,279.982 362.458,279.982 363.093,279.982 363.728,279.982 364.363,279.982 364.998,279.982 365.633,279.982 366.267,279.982 366.902,279.982 367.537,279.982 368.172,279.982 368.807,279.982 369.442,279.982 370.077,279.982 370.712,279.982 371.347,279.982 371.982,279.982 372.617,279.982 373.251,279.982 373.886,279.982 374.521,279.982 375.156,279.982 375.791,279.982 376.426,279.982 377.061,279.982 377.696,279.982 378.331,279.982 378.966,279.982 379.601,279.982" stroke-width="0.5" stroke-linejoin="round"/>
  </g>
 </g>
</svg>
